<?xml version="1.0" encoding="UTF-8" standalone="no"?>
<svg
   xmlns:dc="http://purl.org/dc/elements/1.1/"
   xmlns:cc="http://creativecommons.org/ns#"
   xmlns:rdf="http://www.w3.org/1999/02/22-rdf-syntax-ns#"
   xmlns:svg="http://www.w3.org/2000/svg"
   xmlns="http://www.w3.org/2000/svg"
   xmlns:sodipodi="http://sodipodi.sourceforge.net/DTD/sodipodi-0.dtd"
   xmlns:inkscape="http://www.inkscape.org/namespaces/inkscape"
   sodipodi:docname="nerf_logo_horizontal_yellow.svg"
   inkscape:version="1.0beta2 (2b71d25, 2019-12-03)"
   id="svg4062"
   version="1.1"
   viewBox="0 0 72.298134 36.023949"
   height="15.875mm"
   width="31.860mm">
  <defs
     id="defs4056" />
  <sodipodi:namedview
     inkscape:window-maximized="0"
     inkscape:window-y="25"
     inkscape:window-x="0"
     inkscape:window-height="847"
     inkscape:window-width="1440"
     fit-margin-bottom="0"
     fit-margin-right="0"
     fit-margin-left="0"
     fit-margin-top="0"
     showguides="false"
     showgrid="false"
     inkscape:document-rotation="0"
     inkscape:current-layer="layer1"
     inkscape:document-units="cm"
     inkscape:cy="28.07675"
     inkscape:cx="168.05497"
     inkscape:zoom="0.35"
     inkscape:pageshadow="2"
     inkscape:pageopacity="0.0"
     borderopacity="1.0"
     bordercolor="#666666"
     pagecolor="#ffffff"
     id="base" />
  <metadata
     id="metadata4059">
    <rdf:RDF>
      <cc:Work
         rdf:about="">
        <dc:format>image/svg+xml</dc:format>
        <dc:type
           rdf:resource="http://purl.org/dc/dcmitype/StillImage" />
        <dc:title></dc:title>
      </cc:Work>
    </rdf:RDF>
  </metadata>
  <g
     transform="translate(-87.827122,-63.630884)"
     id="layer1"
     inkscape:groupmode="layer"
     inkscape:label="Camada 1">
    <path
       inkscape:connector-curvature="0"
       d="M 88.014619,99.467334 V 63.818381 h 71.923141 v 35.648953 z"
       style="fill:#1b1918;fill-rule:evenodd;stroke:#1b1918;stroke-width:0.374994;stroke-linecap:round;stroke-linejoin:round;stroke-dasharray:none"
       id="path614" />
    <g
       transform="matrix(0.26458333,0,0,0.26458333,79.906357,-113.60943)"
       id="Layer1046">
      <path
         inkscape:connector-curvature="0"
         d="m 172.5666,696.4788 c 0.24,-0.1712 0.6148,-0.3745 1.1246,-0.6098 0.5098,-0.2354 1.0496,-0.4171 1.6194,-0.5456 0.5697,-0.1283 1.1095,-0.1497 1.6193,-0.0641 0.5098,0.0856 0.9446,0.3422 1.3046,0.7701 0.1797,0.2139 0.5549,0.8987 1.1244,2.0539 0.5696,1.1554 1.2896,2.61 2.1594,4.3644 0.8694,1.7543 1.814,3.712 2.8336,5.8727 1.0197,2.161 2.0692,4.3431 3.1487,6.5467 1.0797,2.2037 2.1293,4.3537 3.1487,6.4504 1.0197,2.0967 1.9493,3.958 2.789,5.5838 0.8396,1.6261 1.5444,2.9311 2.1143,3.9153 0.5697,0.984 0.9145,1.4547 1.0344,1.412 0.1199,-0.0429 0.2101,-0.5884 0.27,-1.6366 0.06,-1.0485 0.0748,-2.4176 0.0449,-4.1079 -0.03,-1.6901 -0.0749,-3.6262 -0.1347,-5.8085 -0.0603,-2.1821 -0.1351,-4.4071 -0.2251,-6.675 -0.0898,-2.2677 -0.1648,-4.4927 -0.2249,-6.675 -0.0598,-2.1823 -0.1201,-4.1397 -0.1797,-5.8727 -0.0603,-1.733 -0.0903,-3.1342 -0.0903,-4.204 0,-1.0696 0.03,-1.6474 0.0903,-1.7328 0.2398,-0.2997 0.6596,-0.567 1.2592,-0.8025 0.5998,-0.2352 1.3794,-0.0748 2.339,0.4815 0.2401,0.1283 0.4348,0.8236 0.5849,2.0859 0.15,1.2624 0.2702,2.8882 0.3597,4.878 0.0902,1.9895 0.1501,4.2253 0.1802,6.7071 0.0299,2.4816 0.0447,5.0168 0.0447,7.6055 0,2.5887 -0.0447,5.124 -0.1347,7.6058 -0.0902,2.4818 -0.1797,4.7173 -0.27,6.7071 -0.09,1.9896 -0.1949,3.6156 -0.3148,4.878 -0.12,1.2621 -0.2399,1.9574 -0.36,2.0859 -0.5398,0.5989 -1.1094,0.9305 -1.7092,0.9948 -0.5999,0.064 -1.3797,-0.1391 -2.339,-0.6097 -0.2401,-0.1285 -0.6896,-0.7488 -1.3495,-1.8613 -0.6599,-1.1125 -1.4397,-2.5247 -2.339,-4.2361 -0.8997,-1.7117 -1.9044,-3.6478 -3.0138,-5.8085 -1.1096,-2.161 -2.2191,-4.3644 -3.3289,-6.611 -1.1092,-2.2463 -2.2039,-4.4179 -3.2836,-6.5146 -1.0795,-2.0965 -2.0543,-3.9686 -2.9238,-5.616 -0.8696,-1.6474 -1.5894,-2.9524 -2.159,-3.9151 -0.5699,-0.9626 -0.9149,-1.4014 -1.0349,-1.3158 -0.1797,0.0856 -0.2697,0.9629 -0.2697,2.6317 0,1.6687 0.06,3.7333 0.18,6.1935 0.1201,2.4605 0.2699,5.124 0.4497,7.9908 0.1798,2.8669 0.3448,5.5733 0.4947,8.1191 0.1502,2.5461 0.255,4.7068 0.3148,6.4825 0.0603,1.7757 0.0603,2.8134 0,3.1128 -0.2997,0.8558 -0.8394,1.2624 -1.619,1.2195 -0.7798,-0.0427 -1.4395,-0.2995 -1.9792,-0.7702 -0.1199,-0.1282 -0.255,-0.7916 -0.4049,-1.9897 -0.15,-1.1979 -0.2851,-2.7492 -0.4051,-4.6531 -0.1199,-1.9042 -0.2398,-4.0544 -0.3595,-6.4504 -0.1201,-2.3962 -0.2253,-4.8458 -0.3149,-7.3489 -0.0902,-2.5032 -0.1503,-4.9528 -0.1802,-7.349 -0.0299,-2.3962 -0.0451,-4.5356 -0.0451,-6.4182 0,-1.8829 0.0304,-3.4231 0.0902,-4.6212 0.0601,-1.1981 0.1499,-1.8399 0.2698,-1.9255 z m 32.7472,-0.5776 c 0.4797,-0.2997 1.6793,-0.5028 3.5987,-0.6098 1.9189,-0.1071 3.9881,-0.139 6.2072,-0.0963 2.2191,0.0429 4.2436,0.1283 6.0728,0.2568 1.8293,0.1282 2.8937,0.2567 3.1938,0.385 0.1797,0.0856 0.3595,0.2247 0.5397,0.4172 0.1798,0.1925 0.3149,0.4064 0.4047,0.6418 0.09,0.2353 0.09,0.4599 0,0.674 -0.0898,0.2139 -0.3448,0.3637 -0.7647,0.4493 -0.4198,0.0854 -1.2894,0.1497 -2.6089,0.1926 -1.3193,0.0426 -2.7289,0.0856 -4.2284,0.1282 -1.4994,0.0427 -2.9239,0.1178 -4.2731,0.2247 -1.3495,0.1069 -2.2642,0.246 -2.7441,0.4172 -0.2999,0.1283 -0.5697,0.7809 -0.8097,1.9576 -0.2399,1.1766 -0.4496,2.6101 -0.6298,4.3002 -0.1797,1.6901 -0.2997,3.5087 -0.3595,5.4556 -0.0603,1.9468 -0.09,3.7654 -0.09,5.4555 0,1.6901 0.0596,3.1129 0.1798,4.268 0.1199,1.1555 0.3001,1.776 0.5397,1.8615 0.3598,0.1283 1.2894,0.1497 2.789,0.0641 1.4993,-0.0856 3.1188,-0.1926 4.8579,-0.3208 1.7396,-0.1285 3.3439,-0.2033 4.8133,-0.2247 1.4692,-0.0213 2.3238,0.1177 2.5638,0.4172 0.4799,0.5133 0.6298,1.0804 0.45,1.7009 -0.1802,0.6203 -0.5998,1.0374 -1.2595,1.2515 -0.3599,0.0856 -1.2445,0.107 -2.654,0.0641 -1.4096,-0.0427 -2.9091,-0.0748 -4.4984,-0.0962 -1.5891,-0.0213 -3.0585,0.0106 -4.4082,0.0962 -1.3493,0.0856 -2.1139,0.2781 -2.2941,0.5778 -0.1798,0.3421 -0.3149,0.9199 -0.4047,1.7328 -0.09,0.813 -0.1051,1.6581 -0.0449,2.5352 0.0599,0.8773 0.195,1.6795 0.4047,2.407 0.2099,0.7274 0.4949,1.1552 0.8546,1.2837 0.36,0.1282 1.3796,0.2244 3.0589,0.2887 1.6794,0.0642 3.4786,0.1285 5.398,0.1925 1.9189,0.0642 3.6884,0.1498 5.3077,0.2568 1.6194,0.1069 2.6089,0.246 2.9687,0.4172 0.36,0.2138 0.6299,0.4814 0.8097,0.8022 0.18,0.321 0.285,0.6418 0.3149,0.9629 0.0301,0.3208 -0.0299,0.6203 -0.1798,0.8984 -0.1501,0.2781 -0.3747,0.4601 -0.6748,0.5457 -0.2401,0.0427 -0.8696,0.0961 -1.8893,0.1604 -1.0196,0.0642 -2.2492,0.1177 -3.6886,0.1604 -1.4393,0.0429 -2.9837,0.0748 -4.6331,0.0964 -1.6494,0.0213 -3.2088,0.0213 -4.6782,0 -1.4692,-0.0216 -2.7436,-0.0643 -3.8233,-0.1285 -1.0795,-0.0641 -1.7691,-0.1604 -2.0692,-0.2887 -0.2401,-0.0856 -0.465,-0.7488 -0.6747,-1.9898 -0.2099,-1.2408 -0.4048,-2.8347 -0.5846,-4.7816 -0.1802,-1.9469 -0.36,-4.1505 -0.5402,-6.6108 -0.1798,-2.4604 -0.3149,-4.9743 -0.4046,-7.5414 -0.09,-2.5674 -0.1651,-5.0919 -0.2247,-7.5737 -0.0603,-2.4818 -0.0603,-4.7173 0,-6.7071 0.0596,-1.9896 0.1499,-3.6156 0.2698,-4.878 0.1199,-1.2621 0.2997,-1.9787 0.5397,-2.1499 z m 27.3489,1.0269 c -0.0599,-0.3851 0.0299,-0.6848 0.2698,-0.8987 0.24,-0.2138 0.5549,-0.3742 0.9448,-0.4814 0.3899,-0.1069 0.8095,-0.1817 1.2595,-0.2246 0.4497,-0.0427 0.9144,-0.107 1.3943,-0.1926 0.3,-0.0427 1.0648,-0.0748 2.2941,-0.0961 1.2294,-0.0214 2.684,0.0856 4.3633,0.3208 1.6794,0.2354 3.4636,0.6526 5.3528,1.2515 1.8893,0.5992 3.5987,1.4657 5.128,2.5995 1.5294,1.1339 2.774,2.6101 3.7338,4.4287 0.9593,1.8184 1.3791,4.0755 1.2592,6.7712 -0.1797,2.9953 -0.7347,5.4769 -1.6643,7.4453 -0.9295,1.9682 -2.1141,3.5727 -3.5536,4.8137 -1.4395,1.2408 -3.0438,2.1715 -4.8128,2.7918 -1.7696,0.6205 -3.5239,1.0591 -5.2633,1.3158 -0.4198,0.0856 -0.5697,0.1604 -0.4497,0.2247 0.1201,0.0642 0.2699,0.1604 0.4497,0.2889 1.4397,0.9413 2.9238,1.8934 4.4533,2.8561 1.5295,0.9626 2.939,1.8291 4.2284,2.5992 1.2894,0.7704 2.3989,1.4228 3.3285,1.9577 0.9299,0.5349 1.5147,0.8665 1.7546,0.9948 0.4198,0.2141 0.6148,0.5457 0.5848,0.995 -0.0303,0.4491 -0.1949,0.877 -0.4951,1.2834 -0.2996,0.4067 -0.7195,0.7275 -1.2594,0.9629 -0.5398,0.2352 -1.0795,0.2674 -1.6193,0.0962 -0.36,-0.0856 -1.1695,-0.5455 -2.4292,-1.3799 -1.2592,-0.8343 -2.6987,-1.8291 -4.3182,-2.9845 -1.6192,-1.1552 -3.2985,-2.3641 -5.0381,-3.6262 -1.7392,-1.2624 -3.2687,-2.3427 -4.588,-3.2414 -0.2997,-0.2138 -0.5098,-0.2994 -0.6297,-0.2567 -0.1199,0.0429 -0.2102,0.0856 -0.27,0.1285 -0.1798,0.1282 -0.2997,0.6739 -0.3598,1.6366 -0.0598,0.9626 -0.1201,2.0217 -0.18,3.1771 -0.06,1.1552 -0.1199,2.2463 -0.1799,3.2732 -0.0599,1.0269 -0.1798,1.6688 -0.3598,1.9256 -0.2999,0.5562 -0.8397,0.8878 -1.6195,0.9947 -0.7796,0.107 -1.3193,-0.0748 -1.6192,-0.5454 -0.18,-0.2568 -0.3149,-0.7917 -0.4049,-1.6047 -0.09,-0.8129 -0.1498,-2.0325 -0.1797,-3.6584 -0.0304,-1.626 -0.0152,-3.7012 0.0448,-6.2256 0.0599,-2.5247 0.1501,-5.6268 0.27,-9.3067 0.0599,-2.3106 0.1199,-4.589 0.1798,-6.8354 0.0598,-2.2463 0.09,-4.3109 0.09,-6.1938 0,-1.8826 0,-3.4871 0,-4.8135 0,-1.3265 -0.0302,-2.1823 -0.09,-2.5673 z m 3.6885,3.0807 c 0,0.1283 0.0149,0.7596 0.0448,1.8934 0.03,1.1338 0.0603,2.5245 0.0903,4.1719 0.0299,1.6474 0.0598,3.4123 0.09,5.2951 0.0299,1.8827 0.075,3.637 0.1348,5.2631 0.0601,1.6258 0.1052,2.9951 0.1349,4.1076 0.0299,1.1125 0.0451,1.7114 0.0451,1.797 0,0.1285 0.0148,0.2997 0.0447,0.5136 0.0304,0.2138 0.0902,0.4064 0.1802,0.5776 0.09,0.1712 0.2548,0.321 0.4946,0.4493 0.2401,0.1283 0.6001,0.1712 1.0795,0.1283 0.3002,-0.0427 0.9149,-0.0962 1.8444,-0.1604 0.9296,-0.0643 1.9792,-0.2247 3.1487,-0.4815 1.1695,-0.2565 2.414,-0.6632 3.7338,-1.2194 1.3193,-0.5563 2.5187,-1.3156 3.5982,-2.2785 1.0799,-0.9626 1.9794,-2.1715 2.699,-3.6264 0.7199,-1.4546 1.1098,-3.2519 1.1697,-5.3913 0,-2.0965 -0.3299,-3.8616 -0.9895,-5.2949 -0.6601,-1.4336 -1.5447,-2.5888 -2.6539,-3.466 -1.1098,-0.8771 -2.3093,-1.5403 -3.5987,-1.9896 -1.2896,-0.4493 -2.5491,-0.7703 -3.7784,-0.9629 -1.2298,-0.1925 -2.3392,-0.2887 -3.3289,-0.2887 -0.9893,0 -1.6642,0 -2.0241,0 -1.1995,0 -1.8591,0.0748 -1.9793,0.2247 -0.1199,0.1496 -0.1799,0.3956 -0.1799,0.738 z m 25.9998,-4.1076 c 0.2997,-0.2141 0.9596,-0.3638 1.979,-0.4493 1.0196,-0.0856 2.2043,-0.1178 3.5538,-0.0964 1.3493,0.0215 2.7887,0.0642 4.3182,0.1285 1.5295,0.064 2.9687,0.1496 4.3182,0.2565 1.3495,0.1072 2.504,0.2141 3.4638,0.3211 0.9596,0.1069 1.5893,0.1817 1.889,0.2246 0.2999,0.0856 0.5397,0.3424 0.72,0.7702 0.1797,0.4279 -0.1499,0.7487 -0.9898,0.9628 -0.4198,0.0854 -1.2896,0.1497 -2.6089,0.1926 -1.3194,0.0426 -2.7289,0.0856 -4.2285,0.1282 -1.4993,0.0427 -2.9238,0.1178 -4.273,0.2247 -1.3495,0.1069 -2.2642,0.246 -2.7441,0.4172 -0.2999,0.1283 -0.5545,0.7809 -0.7646,1.9576 -0.2102,1.1766 -0.36,2.6314 -0.4498,4.3644 -0.09,1.7328 -0.1501,3.5835 -0.18,5.5518 -0.0299,1.9682 0,3.7976 0.09,5.4877 0.09,1.69 0.2097,3.1236 0.36,4.3001 0.1498,1.1768 0.3448,1.8078 0.5846,1.8934 0.3598,0.1285 1.1997,0.1499 2.519,0.0643 1.3193,-0.0856 2.7137,-0.1818 4.1833,-0.2889 1.4694,-0.107 2.7887,-0.1605 3.9585,-0.1605 1.1694,0 1.8144,0.1712 1.9343,0.5136 0.1199,0.4707 0.2249,0.984 0.3149,1.5403 0.0897,0.5562 -0.195,0.9413 -0.8549,1.1554 -0.3597,0.0856 -1.1246,0.1069 -2.2941,0.064 -1.1695,-0.0427 -2.414,-0.0748 -3.7333,-0.0962 -1.3196,-0.0213 -2.5342,0 -3.6438,0.0643 -1.1094,0.064 -1.7543,0.246 -1.9341,0.5455 -0.4799,0.7701 -0.7195,1.733 -0.7195,2.8881 0,1.1555 0.0897,2.332 0.2697,3.5301 0.18,1.1981 0.3598,2.3214 0.5398,3.3696 0.18,1.0485 0.2099,1.8507 0.0898,2.407 -0.6597,0.2138 -1.2745,0.3637 -1.8439,0.4493 -0.5702,0.0854 -1.3049,-0.0643 -2.2044,-0.4493 -0.24,-0.0856 -0.4649,-0.7488 -0.6746,-1.9898 -0.2099,-1.2408 -0.4049,-2.8347 -0.5846,-4.7816 -0.1802,-1.9469 -0.36,-4.1505 -0.5402,-6.6108 -0.1798,-2.4604 -0.3149,-4.9743 -0.4047,-7.5414 -0.09,-2.5674 -0.165,-5.0919 -0.2248,-7.5737 -0.0601,-2.4818 -0.0601,-4.7173 0,-6.7071 0.0598,-1.9896 0.15,-3.6156 0.27,-4.878 0.1199,-1.2621 0.2996,-1.9787 0.5397,-2.1499 z"
         style="fill:#ffcb00;fill-rule:evenodd"
         id="path616" />
      <g
         id="Layer1047">
        <g
           id="Layer1048">
          <path
             inkscape:connector-curvature="0"
             d="m 169.8388,763.6484 h 1.2007 c 0.1083,0 0.1901,-0.0295 0.2493,-0.0854 0.0557,-0.0524 0.0852,-0.1312 0.0852,-0.2295 v -13.4642 c -0.3904,0 -0.6953,0 -0.9151,0.007 -0.2232,0.003 -0.384,0.0163 -0.4824,0.0361 -0.0985,0.0196 -0.1608,0.0523 -0.187,0.0983 -0.0229,0.046 -0.0328,0.1116 -0.0295,0.1937 v 4.6258 c 0,0.1575 0.003,0.3837 0.007,0.6724 0.003,0.2889 0.006,0.6201 0.013,0.9908 0.007,0.3741 0.0165,0.7611 0.0262,1.1647 0.0132,0.4035 0.0231,0.7972 0.0394,1.1844 0.0132,0.3838 0.0297,0.7382 0.0493,1.0564 0.0198,0.3182 0.0394,0.5774 0.0622,0.7776 v 0.059 c -0.095,-0.3019 -0.2099,-0.6496 -0.3377,-1.0465 -0.1281,-0.3969 -0.2658,-0.8137 -0.4102,-1.25 -0.1443,-0.4364 -0.2886,-0.8661 -0.4297,-1.2828 -0.141,-0.4199 -0.2724,-0.8005 -0.3906,-1.1418 -0.1212,-0.3444 -0.2198,-0.6201 -0.3016,-0.83 l -2.2048,-5.3147 h -1.2203 c -0.1182,0 -0.2035,0.0262 -0.2559,0.0788 -0.0526,0.0523 -0.0788,0.1377 -0.0788,0.2559 v 13.4444 c 0.3937,0 0.7022,0 0.9218,-0.007 0.2198,-0.003 0.3773,-0.013 0.4726,-0.0328 0.0951,-0.0196 0.154,-0.0493 0.1738,-0.0951 0.0229,-0.0427 0.0295,-0.1019 0.0262,-0.1804 v -4.7834 c 0,-0.1443 -0.003,-0.3575 -0.007,-0.6398 -0.003,-0.2821 -0.01,-0.6102 -0.0196,-0.9776 -0.007,-0.3708 -0.0165,-0.7579 -0.0295,-1.1647 -0.01,-0.4035 -0.0231,-0.8038 -0.036,-1.1974 -0.0165,-0.3937 -0.0331,-0.7545 -0.0493,-1.0859 -0.0165,-0.3281 -0.0361,-0.6038 -0.0559,-0.8203 0.0986,0.3118 0.2165,0.6727 0.3479,1.0828 0.1344,0.4099 0.2754,0.8399 0.4198,1.2859 0.1476,0.4462 0.292,0.8792 0.433,1.2993 0.1413,0.4231 0.2691,0.7972 0.3873,1.1319 0.1148,0.3313 0.2099,0.5872 0.2821,0.771 z m 9.1335,-9.8422 c -0.3906,0 -0.6956,0 -0.9121,0.007 -0.2198,0.003 -0.3773,0.0162 -0.4757,0.0361 -0.0953,0.0195 -0.1576,0.0523 -0.1771,0.0983 -0.0231,0.046 -0.0328,0.1116 -0.0295,0.1936 v 7.9526 c -0.1413,0.0917 -0.2889,0.1639 -0.4463,0.2132 -0.1575,0.0523 -0.315,0.0884 -0.4658,0.1115 -0.1509,0.0196 -0.2856,0.0295 -0.4068,0.0295 -0.3512,0.003 -0.6234,-0.0526 -0.8137,-0.1641 -0.1936,-0.1114 -0.3248,-0.2951 -0.4002,-0.551 -0.0722,-0.2528 -0.1083,-0.5939 -0.105,-1.0172 v -6.9091 c -0.4102,0 -0.7283,0 -0.9547,0.007 -0.2298,0.003 -0.3937,0.0162 -0.492,0.0361 -0.0986,0.0195 -0.1576,0.0523 -0.1805,0.0983 -0.0231,0.046 -0.0297,0.1116 -0.0264,0.1936 v 6.4367 c -0.003,0.5512 0.0427,1.0302 0.1314,1.4404 0.0917,0.4099 0.246,0.7512 0.4658,1.0203 0.2198,0.2689 0.5217,0.4724 0.9055,0.6069 0.3837,0.1344 0.866,0.2002 1.45,0.2002 0.3575,0 0.712,-0.033 1.0663,-0.092 0.3542,-0.059 0.6922,-0.1443 1.0104,-0.2493 0.3184,-0.1049 0.6038,-0.2297 0.8564,-0.3674 z m -3.189,-1.3583 c 0.1377,-0.0788 0.3085,-0.1837 0.5151,-0.3182 0.2035,-0.1311 0.4233,-0.2821 0.6528,-0.4429 0.2331,-0.1606 0.4562,-0.3248 0.676,-0.4856 0.2165,-0.164 0.4068,-0.3116 0.5675,-0.446 0.1641,-0.1314 0.2787,-0.2397 0.3445,-0.3151 -0.0165,-0.1213 -0.0427,-0.2493 -0.0853,-0.3871 -0.0427,-0.1377 -0.0951,-0.2691 -0.1609,-0.3903 -0.0656,-0.1248 -0.1377,-0.2231 -0.2198,-0.3019 -0.0819,-0.0788 -0.1672,-0.1182 -0.2623,-0.1215 -0.0328,0.003 -0.1181,0.0493 -0.2495,0.1411 -0.1312,0.0919 -0.2951,0.2165 -0.492,0.374 -0.1969,0.1576 -0.4069,0.3347 -0.63,0.5347 -0.2264,0.2002 -0.4462,0.4069 -0.6658,0.6201 -0.2198,0.2167 -0.42,0.4266 -0.6005,0.6332 0,0.003 0.0165,0.0526 0.046,0.1411 0.0295,0.0887 0.0722,0.1936 0.1246,0.3118 0.0558,0.1179 0.1214,0.2198 0.1936,0.3115 0.0755,0.0887 0.1575,0.1345 0.246,0.1411 z m 9.9011,2.0472 c -0.003,-0.1738 -0.0787,-0.3248 -0.2231,-0.4559 -0.1443,-0.1347 -0.3377,-0.2396 -0.5839,-0.3151 -0.246,-0.0755 -0.5215,-0.1149 -0.8267,-0.1149 -0.3314,-0.003 -0.6628,0.0297 -0.9974,0.1019 -0.3312,0.0722 -0.6529,0.2099 -0.9546,0.4165 -0.3051,0.2036 -0.5775,0.5019 -0.8136,0.8991 -0.2397,0.3936 -0.4265,0.9088 -0.5644,1.5484 -0.1411,0.6396 -0.21,1.4271 -0.2133,2.3687 0,0.8267 0.0427,1.5288 0.1248,2.1029 0.0852,0.5775 0.2066,1.05 0.3708,1.4172 0.1606,0.3675 0.3608,0.6498 0.5969,0.8531 0.2363,0.2002 0.5085,0.338 0.817,0.4167 0.3083,0.0786 0.6496,0.1149 1.0236,0.1116 0.4364,-0.003 0.8201,-0.0493 1.1482,-0.1413 0.3313,-0.0917 0.5872,-0.2165 0.7743,-0.3672 0.1837,-0.151 0.2788,-0.3151 0.2821,-0.4955 0,-0.1246 -0.013,-0.2592 -0.0427,-0.397 -0.0262,-0.1377 -0.0656,-0.2953 -0.1147,-0.4691 -0.1707,0.1149 -0.3938,0.2165 -0.666,0.3083 -0.2724,0.092 -0.5708,0.1379 -0.8892,0.1443 -0.2986,0.003 -0.5608,-0.049 -0.7807,-0.154 -0.2198,-0.105 -0.4002,-0.2887 -0.5446,-0.5479 -0.1443,-0.2592 -0.2526,-0.6135 -0.3216,-1.0663 -0.0689,-0.4528 -0.105,-1.0269 -0.105,-1.7158 0,-0.6989 0.0394,-1.2828 0.1149,-1.7519 0.0721,-0.4725 0.1738,-0.8529 0.3051,-1.1418 0.1279,-0.2887 0.2755,-0.5052 0.443,-0.6529 0.1672,-0.1509 0.341,-0.2493 0.5281,-0.2983 0.1837,-0.0526 0.3707,-0.0755 0.5578,-0.0722 0.2691,0.003 0.528,0.0392 0.771,0.1113 0.2427,0.0691 0.4462,0.151 0.6068,0.243 0.0689,-0.1708 0.1149,-0.3314 0.1411,-0.489 0.0264,-0.1542 0.036,-0.2853 0.036,-0.3969 z m 2.8739,-5.3147 c -0.4231,-0.003 -0.7512,0.003 -0.9809,0.0261 -0.2328,0.0231 -0.3936,0.0854 -0.4854,0.1904 -0.0887,0.1016 -0.1313,0.2722 -0.128,0.5118 v 13.7397 c 0.3936,0 0.7021,0 0.9219,-0.007 0.2198,-0.003 0.3774,-0.013 0.4724,-0.0328 0.0951,-0.0196 0.1543,-0.0493 0.1738,-0.0951 0.0231,-0.0427 0.0295,-0.1019 0.0262,-0.1804 z m 5.0001,4.4288 c -0.3479,-0.003 -0.6922,0.033 -1.0269,0.1116 -0.338,0.0821 -0.6528,0.233 -0.9481,0.4528 -0.2953,0.2198 -0.5545,0.5413 -0.7809,0.9581 -0.2264,0.4165 -0.4036,0.9611 -0.5314,1.6304 -0.1281,0.6725 -0.1936,1.496 -0.1969,2.477 0,0.7644 0.0525,1.4139 0.1509,1.9519 0.1017,0.5382 0.2427,0.9811 0.4297,1.3288 0.1871,0.3446 0.4102,0.6168 0.6694,0.8104 0.2592,0.1934 0.5479,0.3281 0.8693,0.4035 0.3182,0.0786 0.6628,0.1149 1.0302,0.1116 0.3708,0 0.7218,-0.0297 1.0465,-0.0821 0.3281,-0.0559 0.6168,-0.1313 0.8661,-0.2297 0.2495,-0.0984 0.4462,-0.2132 0.5873,-0.3444 0.141,-0.1313 0.2132,-0.2724 0.2165,-0.4266 0,-0.1083 -0.003,-0.2262 -0.013,-0.3543 -0.01,-0.1311 -0.0264,-0.2592 -0.046,-0.387 -0.0198,-0.1281 -0.046,-0.2396 -0.0788,-0.3413 -0.3379,0.1903 -0.6955,0.338 -1.0759,0.4463 -0.384,0.1082 -0.771,0.1606 -1.168,0.1639 -0.2986,0.003 -0.5611,-0.0361 -0.7809,-0.118 -0.2231,-0.082 -0.4068,-0.2231 -0.5545,-0.4167 -0.1509,-0.1969 -0.2623,-0.4691 -0.3443,-0.8104 -0.0821,-0.3444 -0.1314,-0.7743 -0.151,-1.2925 0.2394,0 0.5217,-0.003 0.8498,-0.0132 0.3281,-0.01 0.679,-0.0262 1.0531,-0.0493 0.3738,-0.0229 0.7479,-0.0556 1.1286,-0.095 0.3771,-0.0427 0.738,-0.0951 1.0825,-0.1576 0.0526,-0.2394 0.0951,-0.5019 0.1248,-0.7873 0.0328,-0.2854 0.0557,-0.5773 0.0722,-0.8792 0.0129,-0.3052 0.0195,-0.6005 0.0195,-0.8925 0,-1.0628 -0.2099,-1.8569 -0.6299,-2.3817 -0.4198,-0.525 -1.0432,-0.7875 -1.8699,-0.7875 z m -0.1771,1.3977 c 0.2788,-0.003 0.5019,0.0623 0.6625,0.1903 0.1609,0.1279 0.279,0.338 0.3479,0.6234 0.0689,0.2854 0.1082,0.6658 0.1115,1.1352 0,0.1901 -0.007,0.3903 -0.0198,0.5969 -0.0129,0.2099 -0.0393,0.4036 -0.0787,0.584 -0.1739,0.0493 -0.3739,0.0887 -0.6003,0.1181 -0.2264,0.0328 -0.4625,0.0557 -0.7054,0.0722 -0.246,0.0165 -0.4854,0.0262 -0.7184,0.0295 -0.2331,0.003 -0.443,0.003 -0.6333,-0.003 0.0297,-0.6627 0.0953,-1.2106 0.1903,-1.6437 0.0984,-0.4363 0.2199,-0.7774 0.3675,-1.0267 0.1476,-0.2495 0.3149,-0.4233 0.4953,-0.5283 0.1837,-0.1016 0.3774,-0.1509 0.5809,-0.1476 z m 3.6612,3.7204 c 0,0.8825 0.0426,1.6271 0.128,2.2342 0.0819,0.6069 0.2099,1.0991 0.3772,1.4795 0.1674,0.3807 0.374,0.676 0.62,0.8793 0.2493,0.2033 0.538,0.3413 0.8661,0.4167 0.3281,0.0753 0.6922,0.1116 1.0991,0.1083 0.7021,0.003 1.2927,-0.1741 1.7717,-0.5283 0.4821,-0.3576 0.8432,-0.9154 1.0892,-1.6798 0.2427,-0.7611 0.3674,-1.7519 0.3674,-2.9689 0,-0.9941 -0.0625,-1.8208 -0.187,-2.4769 -0.1248,-0.6562 -0.3118,-1.1746 -0.5644,-1.552 -0.2526,-0.3773 -0.5675,-0.6429 -0.9514,-0.8004 -0.3838,-0.1576 -0.8333,-0.2361 -1.3484,-0.2298 -0.6922,-0.003 -1.2795,0.1708 -1.7649,0.525 -0.4856,0.3543 -0.8597,0.9088 -1.1156,1.6633 -0.2559,0.7547 -0.3837,1.7323 -0.387,2.9298 z m 1.7323,0.0393 c 0,-0.7644 0.0361,-1.391 0.1083,-1.883 0.0721,-0.4922 0.1738,-0.876 0.3049,-1.1484 0.1314,-0.2755 0.2854,-0.4658 0.4658,-0.5741 0.1805,-0.1082 0.3807,-0.1575 0.5972,-0.1542 0.233,-0.007 0.433,0.0394 0.6069,0.1344 0.1707,0.0953 0.3151,0.2724 0.4299,0.5316 0.1147,0.2592 0.2,0.6331 0.2559,1.1187 0.0557,0.4856 0.0852,1.1187 0.0852,1.8963 0,0.7644 -0.0361,1.3943 -0.1083,1.8896 -0.0721,0.4956 -0.1705,0.8826 -0.3019,1.1614 -0.1311,0.279 -0.2854,0.4757 -0.4625,0.5873 -0.1771,0.1115 -0.3707,0.1641 -0.584,0.1608 -0.1804,0.003 -0.3443,-0.0231 -0.492,-0.0755 -0.1476,-0.0526 -0.279,-0.1509 -0.3905,-0.2986 -0.1147,-0.1476 -0.2066,-0.3575 -0.2854,-0.6332 -0.0755,-0.2755 -0.1311,-0.6364 -0.1705,-1.0793 -0.0394,-0.4429 -0.059,-0.9875 -0.059,-1.6338 z m 13.1883,3.3463 c -0.1574,0.1083 -0.338,0.1838 -0.5347,0.2298 -0.2002,0.046 -0.4069,0.0655 -0.6267,0.0655 -0.233,0.007 -0.4396,-0.0393 -0.62,-0.1311 -0.1838,-0.0953 -0.338,-0.2658 -0.4659,-0.5118 -0.128,-0.2493 -0.2231,-0.6071 -0.2886,-1.0663 -0.0689,-0.4625 -0.1017,-1.0597 -0.1017,-1.7946 0.003,-0.8038 0.0524,-1.4599 0.1476,-1.9717 0.0984,-0.5119 0.2295,-0.9088 0.3937,-1.1876 0.1639,-0.2821 0.351,-0.4757 0.5545,-0.584 0.2066,-0.1082 0.4165,-0.1608 0.6363,-0.1542 0.2033,-0.003 0.3741,0.0165 0.5118,0.0526 0.1378,0.0394 0.2691,0.1049 0.3937,0.2033 z m 0,-8.1098 c -0.1673,-0.1281 -0.3642,-0.2264 -0.5937,-0.292 -0.233,-0.0689 -0.4988,-0.1019 -0.8038,-0.1019 -0.4266,-0.003 -0.8203,0.1019 -1.1877,0.3085 -0.3675,0.2033 -0.6857,0.5281 -0.9611,0.9644 -0.2757,0.4397 -0.4923,1.0074 -0.6465,1.6996 -0.1543,0.6955 -0.2328,1.5288 -0.2361,2.4998 0.003,0.8498 0.059,1.5616 0.1705,2.1359 0.1116,0.5741 0.2658,1.0366 0.4658,1.3878 0.2003,0.3476 0.4331,0.6134 0.7022,0.7939 0.2691,0.1804 0.5611,0.2985 0.8792,0.3608 0.3149,0.0623 0.6463,0.0887 0.9909,0.0854 0.6101,-0.007 1.1514,-0.0658 1.6205,-0.1774 0.4724,-0.1146 0.8694,-0.2526 1.1942,-0.4132 v -14.0743 c -0.4298,-0.003 -0.7579,0.003 -0.9907,0.0261 -0.233,0.0231 -0.3905,0.0854 -0.479,0.1904 -0.0886,0.1016 -0.128,0.2722 -0.1247,0.5118 z m 6.6338,-0.3939 c -0.3479,-0.003 -0.6922,0.033 -1.0269,0.1116 -0.338,0.0821 -0.6528,0.233 -0.9481,0.4528 -0.2953,0.2198 -0.5545,0.5413 -0.7809,0.9581 -0.2264,0.4165 -0.4036,0.9611 -0.5314,1.6304 -0.1281,0.6725 -0.1936,1.496 -0.1969,2.477 0,0.7644 0.0526,1.4139 0.1509,1.9519 0.1017,0.5382 0.2427,0.9811 0.4297,1.3288 0.1871,0.3446 0.4102,0.6168 0.6694,0.8104 0.2592,0.1934 0.5479,0.3281 0.8693,0.4035 0.3182,0.0786 0.6628,0.1149 1.0303,0.1116 0.3707,0 0.7217,-0.0297 1.0464,-0.0821 0.3281,-0.0559 0.6168,-0.1313 0.8661,-0.2297 0.2495,-0.0984 0.4462,-0.2132 0.5873,-0.3444 0.141,-0.1313 0.2132,-0.2724 0.2165,-0.4266 0,-0.1083 -0.003,-0.2262 -0.013,-0.3543 -0.01,-0.1311 -0.0264,-0.2592 -0.046,-0.387 -0.0198,-0.1281 -0.046,-0.2396 -0.0788,-0.3413 -0.3379,0.1903 -0.6955,0.338 -1.0759,0.4463 -0.384,0.1082 -0.771,0.1606 -1.168,0.1639 -0.2986,0.003 -0.5611,-0.0361 -0.7809,-0.118 -0.2231,-0.082 -0.4068,-0.2231 -0.5545,-0.4167 -0.1509,-0.1969 -0.2623,-0.4691 -0.3443,-0.8104 -0.0821,-0.3444 -0.1314,-0.7743 -0.151,-1.2925 0.2394,0 0.5217,-0.003 0.8498,-0.0132 0.3281,-0.01 0.679,-0.0262 1.0531,-0.0493 0.3738,-0.0229 0.7479,-0.0556 1.1286,-0.095 0.3771,-0.0427 0.738,-0.0951 1.0825,-0.1576 0.0526,-0.2394 0.0951,-0.5019 0.1248,-0.7873 0.0328,-0.2854 0.0557,-0.5773 0.0722,-0.8792 0.0129,-0.3052 0.0195,-0.6005 0.0195,-0.8925 0,-1.0628 -0.2099,-1.8569 -0.6299,-2.3817 -0.4198,-0.525 -1.0432,-0.7875 -1.8699,-0.7875 z m -0.1771,1.3977 c 0.2788,-0.003 0.5019,0.0623 0.6625,0.1903 0.1609,0.1279 0.279,0.338 0.3479,0.6234 0.0689,0.2854 0.1083,0.6658 0.1116,1.1352 0,0.1901 -0.007,0.3903 -0.0198,0.5969 -0.013,0.2099 -0.0394,0.4036 -0.0788,0.584 -0.1738,0.0493 -0.3739,0.0887 -0.6003,0.1181 -0.2264,0.0328 -0.4625,0.0557 -0.7054,0.0722 -0.246,0.0165 -0.4854,0.0262 -0.7184,0.0295 -0.233,0.003 -0.443,0.003 -0.6333,-0.003 0.0297,-0.6627 0.0953,-1.2106 0.1903,-1.6437 0.0984,-0.4363 0.2199,-0.7774 0.3675,-1.0267 0.1476,-0.2495 0.3149,-0.4233 0.4953,-0.5283 0.1837,-0.1016 0.3774,-0.1509 0.5809,-0.1476 z m 8.7594,7.2044 v -5.3147 h 2.6574 c 0.095,0.003 0.1672,-0.0328 0.2066,-0.1116 0.0427,-0.0788 0.0688,-0.2264 0.0787,-0.4396 0.007,-0.2132 0.0132,-0.5215 0.01,-0.9251 h -2.9526 v -4.114 h 3.1298 c 0.0721,0.003 0.1311,-0.0132 0.1705,-0.0426 0.0394,-0.0295 0.0691,-0.092 0.0887,-0.1904 0.0165,-0.095 0.0262,-0.2394 0.0328,-0.433 0.003,-0.1903 0.003,-0.4495 0.003,-0.771 h -4.7046 c -0.1017,0.003 -0.1771,0.0328 -0.2264,0.0854 -0.0491,0.0556 -0.0788,0.1082 -0.0918,0.1606 -0.0132,0.0559 -0.0165,0.0854 -0.0165,0.0887 v 13.4444 h 4.6652 c 0.0788,0.003 0.1377,-0.01 0.1804,-0.0361 0.046,-0.0262 0.0755,-0.0887 0.0953,-0.1805 0.0196,-0.0919 0.0295,-0.2363 0.0328,-0.4297 0.007,-0.1969 0.007,-0.4594 0.007,-0.7908 z m 9.5075,-7.7162 c -0.003,-0.1738 -0.0788,-0.3248 -0.2231,-0.4559 -0.1444,-0.1347 -0.3378,-0.2396 -0.584,-0.3151 -0.246,-0.0755 -0.5215,-0.1149 -0.8267,-0.1149 -0.3313,-0.003 -0.6627,0.0297 -0.9974,0.1019 -0.3311,0.0722 -0.6528,0.2099 -0.9545,0.4165 -0.3052,0.2036 -0.5776,0.5019 -0.8137,0.8991 -0.2396,0.3936 -0.4264,0.9088 -0.5644,1.5484 -0.141,0.6396 -0.2099,1.4271 -0.2132,2.3687 0,0.8267 0.0427,1.5288 0.1248,2.1029 0.0851,0.5775 0.2066,1.05 0.3707,1.4172 0.1607,0.3675 0.3609,0.6498 0.597,0.8531 0.2363,0.2002 0.5085,0.338 0.817,0.4167 0.3083,0.0786 0.6495,0.1149 1.0236,0.1116 0.4363,-0.003 0.8201,-0.0493 1.1481,-0.1413 0.3314,-0.0917 0.5873,-0.2165 0.7743,-0.3672 0.1838,-0.151 0.2788,-0.3151 0.2821,-0.4955 0,-0.1246 -0.013,-0.2592 -0.0427,-0.397 -0.0261,-0.1377 -0.0655,-0.2953 -0.1146,-0.4691 -0.1708,0.1149 -0.3939,0.2165 -0.6661,0.3083 -0.2724,0.092 -0.5707,0.1379 -0.8891,0.1443 -0.2986,0.003 -0.5609,-0.049 -0.7807,-0.154 -0.2198,-0.105 -0.4002,-0.2887 -0.5446,-0.5479 -0.1443,-0.2592 -0.2526,-0.6135 -0.3217,-1.0663 -0.0689,-0.4528 -0.1049,-1.0269 -0.1049,-1.7158 0,-0.6989 0.0393,-1.2828 0.1148,-1.7519 0.0722,-0.4725 0.1738,-0.8529 0.3052,-1.1418 0.1279,-0.2887 0.2755,-0.5052 0.4429,-0.6529 0.1673,-0.1509 0.3411,-0.2493 0.5281,-0.2983 0.1838,-0.0526 0.3708,-0.0755 0.5578,-0.0722 0.2691,0.003 0.5281,0.0392 0.771,0.1113 0.2427,0.0691 0.4463,0.151 0.6069,0.243 0.0689,-0.1708 0.1148,-0.3314 0.141,-0.489 0.0264,-0.1542 0.0361,-0.2853 0.0361,-0.3969 z m 0.6102,4.2322 c 0,0.8825 0.0427,1.6271 0.128,2.2342 0.0819,0.6069 0.2099,1.0991 0.3772,1.4795 0.1674,0.3807 0.374,0.676 0.62,0.8793 0.2493,0.2033 0.538,0.3413 0.8661,0.4167 0.3281,0.0753 0.6922,0.1116 1.0991,0.1083 0.7021,0.003 1.2927,-0.1741 1.7717,-0.5283 0.4821,-0.3576 0.8432,-0.9154 1.0892,-1.6798 0.2427,-0.7611 0.3674,-1.7519 0.3674,-2.9689 0,-0.9941 -0.0625,-1.8208 -0.187,-2.4769 -0.1248,-0.6562 -0.3118,-1.1746 -0.5644,-1.552 -0.2526,-0.3773 -0.5675,-0.6429 -0.9514,-0.8004 -0.3838,-0.1576 -0.8333,-0.2361 -1.3484,-0.2298 -0.6922,-0.003 -1.2795,0.1708 -1.7649,0.525 -0.4856,0.3543 -0.8597,0.9088 -1.1156,1.6633 -0.2559,0.7547 -0.3837,1.7323 -0.387,2.9298 z m 1.7323,0.0393 c 0,-0.7644 0.0361,-1.391 0.1083,-1.883 0.0721,-0.4922 0.1738,-0.876 0.3049,-1.1484 0.1314,-0.2755 0.2854,-0.4658 0.4658,-0.5741 0.1805,-0.1082 0.3807,-0.1575 0.5972,-0.1542 0.233,-0.007 0.4331,0.0394 0.6069,0.1344 0.1707,0.0953 0.3151,0.2724 0.4299,0.5316 0.1147,0.2592 0.2,0.6331 0.2559,1.1187 0.0557,0.4856 0.0852,1.1187 0.0852,1.8963 0,0.7644 -0.0361,1.3943 -0.1083,1.8896 -0.0721,0.4956 -0.1705,0.8826 -0.3019,1.1614 -0.1311,0.279 -0.2853,0.4757 -0.4625,0.5873 -0.1771,0.1115 -0.3707,0.1641 -0.5839,0.1608 -0.1805,0.003 -0.3444,-0.0231 -0.492,-0.0755 -0.1477,-0.0526 -0.2791,-0.1509 -0.3906,-0.2986 -0.1146,-0.1476 -0.2066,-0.3575 -0.2854,-0.6332 -0.0755,-0.2755 -0.1311,-0.6364 -0.1705,-1.0793 -0.0394,-0.4429 -0.059,-0.9875 -0.059,-1.6338 z m 7.5389,-9.5862 c -0.4232,-0.003 -0.7512,0.003 -0.981,0.0261 -0.2327,0.0231 -0.3936,0.0854 -0.4854,0.1904 -0.0886,0.1016 -0.1313,0.2722 -0.128,0.5118 v 13.7397 c 0.3936,0 0.7021,0 0.9219,-0.007 0.2199,-0.003 0.3774,-0.013 0.4725,-0.0328 0.095,-0.0196 0.1542,-0.0493 0.1738,-0.0951 0.0231,-0.0427 0.0295,-0.1019 0.0262,-0.1804 z m 1.378,9.5469 c 0,0.8825 0.0427,1.6271 0.1281,2.2342 0.0819,0.6069 0.2099,1.0991 0.3772,1.4795 0.1674,0.3807 0.374,0.676 0.62,0.8793 0.2493,0.2033 0.538,0.3413 0.8661,0.4167 0.328,0.0753 0.6922,0.1116 1.099,0.1083 0.7022,0.003 1.2928,-0.1741 1.7718,-0.5283 0.4821,-0.3576 0.8432,-0.9154 1.0892,-1.6798 0.2427,-0.7611 0.3674,-1.7519 0.3674,-2.9689 0,-0.9941 -0.0625,-1.8208 -0.187,-2.4769 -0.1248,-0.6562 -0.3118,-1.1746 -0.5644,-1.552 -0.2526,-0.3773 -0.5675,-0.6429 -0.9514,-0.8004 -0.3838,-0.1576 -0.8333,-0.2361 -1.3484,-0.2298 -0.6923,-0.003 -1.2795,0.1708 -1.7649,0.525 -0.4856,0.3543 -0.8597,0.9088 -1.1156,1.6633 -0.2559,0.7547 -0.3838,1.7323 -0.3871,2.9298 z m 1.7324,0.0393 c 0,-0.7644 0.0361,-1.391 0.1082,-1.883 0.0722,-0.4922 0.1739,-0.876 0.305,-1.1484 0.1314,-0.2755 0.2854,-0.4658 0.4658,-0.5741 0.1805,-0.1082 0.3807,-0.1575 0.5972,-0.1542 0.233,-0.007 0.433,0.0394 0.6069,0.1344 0.1707,0.0953 0.3151,0.2724 0.4299,0.5316 0.1147,0.2592 0.2,0.6331 0.2559,1.1187 0.0557,0.4856 0.0852,1.1187 0.0852,1.8963 0,0.7644 -0.0361,1.3943 -0.1083,1.8896 -0.0722,0.4956 -0.1705,0.8826 -0.3019,1.1614 -0.1311,0.279 -0.2854,0.4757 -0.4625,0.5873 -0.1771,0.1115 -0.3708,0.1641 -0.584,0.1608 -0.1804,0.003 -0.3443,-0.0231 -0.492,-0.0755 -0.1476,-0.0526 -0.279,-0.1509 -0.3905,-0.2986 -0.1147,-0.1476 -0.2066,-0.3575 -0.2854,-0.6332 -0.0755,-0.2755 -0.1312,-0.6364 -0.1705,-1.0793 -0.0394,-0.4429 -0.059,-0.9875 -0.059,-1.6338 z m 9.0743,-5.1574 c -0.6463,-0.003 -1.2171,0.1149 -1.706,0.3512 -0.4887,0.2394 -0.8693,0.6234 -1.1417,1.1548 -0.2755,0.5283 -0.4166,1.2269 -0.4199,2.0965 -0.003,0.4231 0.0361,0.82 0.1116,1.1941 0.0755,0.3741 0.2033,0.7118 0.3804,1.0104 0.1805,0.2986 0.4234,0.5479 0.7283,0.7481 -0.3771,0.3083 -0.679,0.6135 -0.9021,0.9151 -0.2231,0.3019 -0.3444,0.5873 -0.3576,0.8564 -0.007,0.2559 0.0984,0.4724 0.3116,0.6529 0.2134,0.1771 0.5118,0.3214 0.8892,0.4297 -0.2854,0.1903 -0.538,0.4068 -0.7644,0.6528 -0.2231,0.243 -0.4003,0.5085 -0.5314,0.7941 -0.1314,0.2887 -0.1969,0.5937 -0.2002,0.9152 -0.003,0.2592 0.036,0.5151 0.1214,0.7677 0.0852,0.2526 0.2394,0.4823 0.4658,0.6891 0.2231,0.2066 0.5413,0.3739 0.9581,0.4986 0.4132,0.1246 0.9481,0.1871 1.6042,0.1904 0.6595,-0.003 1.227,-0.092 1.7027,-0.2625 0.479,-0.1739 0.8693,-0.4069 1.1778,-0.7055 0.305,-0.3019 0.5314,-0.6429 0.6791,-1.0236 0.1476,-0.3837 0.2198,-0.7906 0.2198,-1.217 -0.003,-0.5151 -0.1116,-0.9252 -0.3281,-1.2368 -0.2165,-0.3085 -0.5184,-0.5446 -0.9054,-0.7087 -0.3873,-0.164 -0.8432,-0.2821 -1.3649,-0.3576 -0.443,-0.0559 -0.8399,-0.1083 -1.1876,-0.1576 -0.3478,-0.0492 -0.6233,-0.1082 -0.8266,-0.1771 -0.2003,-0.0689 -0.3052,-0.1608 -0.3085,-0.2755 0.007,-0.1313 0.0589,-0.2757 0.1608,-0.4332 0.1017,-0.1573 0.2165,-0.3017 0.351,-0.433 0.1278,0.0297 0.2658,0.0492 0.4134,0.0624 0.1477,0.01 0.305,0.0163 0.4724,0.0163 0.7578,-0.003 1.3713,-0.1476 1.8404,-0.4297 0.4691,-0.2821 0.8137,-0.679 1.0302,-1.1941 0.2132,-0.5151 0.3215,-1.1222 0.3182,-1.8208 -0.003,-0.4823 -0.0722,-0.9024 -0.2033,-1.2567 -0.1347,-0.3542 -0.3151,-0.6429 -0.5446,-0.8693 0.1278,0.0295 0.2559,0.0526 0.3771,0.0722 0.1215,0.0165 0.2331,0.0261 0.3314,0.0261 0.1708,0 0.3019,-0.049 0.4003,-0.1509 0.0985,-0.1017 0.1476,-0.2526 0.1509,-0.4592 0,-0.187 -0.0163,-0.3446 -0.0491,-0.4724 -0.0297,-0.1281 -0.0658,-0.2264 -0.1084,-0.2953 h -2.3621 c -0.1706,-0.0493 -0.3444,-0.0885 -0.5215,-0.1149 -0.1774,-0.0295 -0.3314,-0.0427 -0.4627,-0.0427 z m -0.059,1.1812 c 0.3149,-0.003 0.5807,0.0656 0.7939,0.2002 0.2132,0.1378 0.374,0.351 0.4823,0.6496 0.1083,0.2953 0.1606,0.679 0.1606,1.158 0.003,0.8562 -0.1146,1.5059 -0.3575,1.9423 -0.2394,0.4363 -0.6201,0.6561 -1.1383,0.6561 -0.4035,0 -0.7087,-0.0887 -0.9186,-0.2658 -0.2132,-0.1771 -0.3576,-0.4297 -0.4331,-0.7611 -0.0754,-0.3314 -0.1082,-0.7316 -0.1051,-1.1974 0.003,-0.5743 0.0724,-1.0368 0.2035,-1.3878 0.1344,-0.3512 0.3149,-0.6038 0.5446,-0.7611 0.2264,-0.1575 0.4823,-0.2363 0.7677,-0.233 z m -0.4724,8.4839 c 0.574,0.0361 1.0236,0.0986 1.3516,0.1837 0.3281,0.0854 0.5609,0.2099 0.6956,0.3807 0.1344,0.1705 0.2,0.4035 0.1967,0.6955 0,0.1738 -0.0394,0.351 -0.1179,0.5281 -0.0788,0.1771 -0.197,0.338 -0.3611,0.4889 -0.164,0.1477 -0.3706,0.2689 -0.6265,0.3576 -0.2526,0.0917 -0.5545,0.1377 -0.9023,0.141 -0.4493,0 -0.7906,-0.046 -1.0333,-0.1344 -0.2396,-0.0887 -0.4036,-0.2099 -0.4922,-0.3675 -0.0918,-0.1542 -0.1312,-0.3346 -0.1279,-0.5413 0.003,-0.2198 0.0524,-0.4363 0.1477,-0.6528 0.0983,-0.2165 0.2262,-0.4201 0.387,-0.6104 0.1576,-0.1934 0.3347,-0.3608 0.5283,-0.5085 0.059,0.01 0.118,0.0198 0.1771,0.0264 0.059,0.01 0.118,0.013 0.1772,0.013 z m 6.7713,-9.4681 c -0.4297,-0.003 -0.7644,0.003 -1.0005,0.0262 -0.2396,0.0231 -0.4035,0.0853 -0.4988,0.1903 -0.0917,0.1016 -0.1377,0.2724 -0.1344,0.5118 v 9.1139 c 0.4002,0 0.712,0 0.9351,-0.007 0.2262,-0.003 0.3871,-0.013 0.4854,-0.0328 0.1017,-0.0196 0.1609,-0.0493 0.1838,-0.0951 0.0231,-0.0427 0.0327,-0.1019 0.0294,-0.1804 z m -1.6139,-3.1298 c 0,0.3049 0.0328,0.5512 0.095,0.7316 0.0623,0.1837 0.1543,0.3116 0.2755,0.3903 0.1215,0.0821 0.2658,0.1182 0.4364,0.1182 0.3051,-0.003 0.5316,-0.1149 0.6825,-0.338 0.1476,-0.2231 0.2231,-0.5347 0.2231,-0.9415 0.013,-0.4102 -0.0394,-0.7021 -0.1575,-0.8826 -0.1182,-0.1771 -0.3281,-0.2625 -0.63,-0.2592 -0.3116,0.003 -0.5446,0.1116 -0.6922,0.3248 -0.1477,0.2101 -0.2264,0.4955 -0.2328,0.8564 z"
             style="fill:#ffcb00;fill-rule:evenodd"
             id="path618" />
          <path
             inkscape:connector-curvature="0"
             d="m 266.4888,754.692 c -0.003,0.1213 0.0129,0.2625 0.0427,0.4232 0.0294,0.1608 0.0884,0.3214 0.1738,0.4823 0.1936,-0.0788 0.4297,-0.151 0.7085,-0.2165 0.279,-0.0656 0.5807,-0.1182 0.9057,-0.1576 0.3247,-0.0394 0.6528,-0.059 0.9842,-0.059 0.2623,-0.003 0.4854,0.0295 0.6658,0.0951 0.1804,0.0656 0.3184,0.1837 0.4135,0.3543 0.095,0.1674 0.141,0.4068 0.141,0.712 v 1.555 c -0.1344,-0.0656 -0.2854,-0.1149 -0.4495,-0.1543 -0.1673,-0.036 -0.3378,-0.0622 -0.5085,-0.0785 -0.1739,-0.0165 -0.3314,-0.0231 -0.4788,-0.0231 -0.3347,-0.003 -0.6562,0.0361 -0.9647,0.1181 -0.3115,0.0854 -0.5905,0.2427 -0.8398,0.4692 -0.246,0.2297 -0.443,0.5544 -0.5906,0.9809 -0.1444,0.4266 -0.2198,0.9809 -0.2231,1.6601 0.003,0.6692 0.082,1.2041 0.2396,1.6076 0.1542,0.4036 0.3641,0.7052 0.6297,0.9055 0.2658,0.2033 0.5644,0.3346 0.8991,0.4002 0.3347,0.0623 0.6823,0.0885 1.0465,0.0788 0.4264,-0.003 0.8137,-0.0361 1.1613,-0.1052 0.3446,-0.0656 0.6496,-0.1507 0.9121,-0.2493 0.2658,-0.1016 0.4856,-0.2066 0.6627,-0.3149 0.0229,-0.3773 0.046,-0.8004 0.059,-1.2696 0.0165,-0.4691 0.0297,-0.9712 0.0361,-1.5026 0.01,-0.5347 0.0165,-1.0826 0.0198,-1.6503 0.003,-0.5641 0.003,-1.1318 0.003,-1.6993 v -1.0432 c 0,-0.5873 -0.0854,-1.0564 -0.2559,-1.4108 -0.1738,-0.351 -0.4397,-0.6069 -0.8005,-0.7611 -0.3609,-0.1576 -0.8203,-0.2331 -1.3845,-0.2298 -0.5019,0.003 -0.958,0.033 -1.3649,0.0887 -0.4101,0.059 -0.7545,0.1278 -1.0365,0.2099 -0.279,0.0788 -0.4758,0.1576 -0.5906,0.233 -0.0788,0.0623 -0.1345,0.1411 -0.1675,0.2394 -0.0328,0.0986 -0.049,0.2003 -0.049,0.3118 z m 4.0352,4.3107 c 0,0.2691 0,0.5512 0,0.8531 0,0.2986 -0.003,0.5939 -0.007,0.8859 -0.003,0.292 -0.01,0.5642 -0.0163,0.8104 -0.01,0.2493 -0.0198,0.4559 -0.0361,0.62 -0.0952,0.0918 -0.2363,0.1706 -0.4266,0.2328 -0.1901,0.0656 -0.3937,0.0984 -0.6168,0.1017 -0.1934,0.003 -0.3674,-0.0196 -0.5248,-0.0623 -0.1542,-0.0427 -0.2887,-0.1247 -0.4035,-0.246 -0.1116,-0.1181 -0.2002,-0.2887 -0.2592,-0.5151 -0.059,-0.2231 -0.092,-0.5118 -0.092,-0.8693 0,-0.4267 0.0394,-0.771 0.1182,-1.0335 0.0754,-0.2626 0.1804,-0.4659 0.3151,-0.6036 0.1344,-0.138 0.2887,-0.233 0.4625,-0.2823 0.1771,-0.0491 0.3641,-0.0722 0.5608,-0.0689 0.1446,0 0.2986,0.0132 0.4694,0.0427 0.1705,0.0295 0.3215,0.0755 0.4559,0.1344 z m 10.4917,3.1102 c -0.1573,0.1083 -0.3379,0.1838 -0.5347,0.2298 -0.2002,0.046 -0.4068,0.0655 -0.6266,0.0655 -0.233,0.007 -0.4396,-0.0393 -0.6201,-0.1311 -0.1837,-0.0953 -0.3379,-0.2658 -0.4658,-0.5118 -0.128,-0.2493 -0.2231,-0.6071 -0.2887,-1.0663 -0.0688,-0.4625 -0.1016,-1.0597 -0.1016,-1.7946 0.003,-0.8038 0.0523,-1.4599 0.1476,-1.9717 0.0984,-0.5119 0.2295,-0.9088 0.3937,-1.1876 0.1639,-0.2821 0.3509,-0.4757 0.5544,-0.584 0.2067,-0.1082 0.4166,-0.1608 0.6364,-0.1542 0.2033,-0.003 0.374,0.0165 0.5118,0.0526 0.1377,0.0394 0.2691,0.1049 0.3936,0.2033 z m 0,-8.1098 c -0.1672,-0.1281 -0.3641,-0.2264 -0.5936,-0.292 -0.233,-0.0689 -0.4988,-0.1019 -0.8038,-0.1019 -0.4267,-0.003 -0.8203,0.1019 -1.1878,0.3085 -0.3674,0.2033 -0.6856,0.5281 -0.9611,0.9644 -0.2757,0.4397 -0.4922,1.0074 -0.6464,1.6996 -0.1543,0.6955 -0.2328,1.5288 -0.2361,2.4998 0.003,0.8498 0.0589,1.5616 0.1705,2.1359 0.1115,0.5741 0.2658,1.0366 0.4658,1.3878 0.2002,0.3476 0.433,0.6134 0.7021,0.7939 0.2691,0.1804 0.5611,0.2985 0.8793,0.3608 0.3149,0.0623 0.6462,0.0887 0.9908,0.0854 0.6102,-0.007 1.1515,-0.0658 1.6206,-0.1774 0.4724,-0.1146 0.8693,-0.2526 1.1941,-0.4132 v -14.0743 c -0.4297,-0.003 -0.7578,0.003 -0.9906,0.0261 -0.233,0.0231 -0.3906,0.0854 -0.479,0.1904 -0.0887,0.1016 -0.1281,0.2722 -0.1248,0.5118 z m 6.6339,-0.3939 c -0.3479,-0.003 -0.6922,0.033 -1.0269,0.1116 -0.338,0.0821 -0.6529,0.233 -0.9482,0.4528 -0.2952,0.2198 -0.5544,0.5413 -0.7809,0.9581 -0.2264,0.4165 -0.4035,0.9611 -0.5313,1.6304 -0.1281,0.6725 -0.1937,1.496 -0.197,2.477 0,0.7644 0.0526,1.4139 0.151,1.9519 0.1016,0.5382 0.2427,0.9811 0.4297,1.3288 0.187,0.3446 0.4101,0.6168 0.6693,0.8104 0.2592,0.1934 0.5479,0.3281 0.8694,0.4035 0.3182,0.0786 0.6628,0.1149 1.0302,0.1116 0.3708,0 0.7217,-0.0297 1.0465,-0.0821 0.3281,-0.0559 0.6168,-0.1313 0.8661,-0.2297 0.2495,-0.0984 0.4462,-0.2132 0.5872,-0.3444 0.1411,-0.1313 0.2133,-0.2724 0.2166,-0.4266 0,-0.1083 -0.003,-0.2262 -0.013,-0.3543 -0.01,-0.1311 -0.0264,-0.2592 -0.046,-0.387 -0.0198,-0.1281 -0.046,-0.2396 -0.0788,-0.3413 -0.338,0.1903 -0.6955,0.338 -1.076,0.4463 -0.3839,0.1082 -0.771,0.1606 -1.1679,0.1639 -0.2986,0.003 -0.5611,-0.0361 -0.7809,-0.118 -0.2231,-0.082 -0.4069,-0.2231 -0.5545,-0.4167 -0.151,-0.1969 -0.2623,-0.4691 -0.3444,-0.8104 -0.082,-0.3444 -0.1313,-0.7743 -0.1509,-1.2925 0.2394,0 0.5217,-0.003 0.8498,-0.0132 0.328,-0.01 0.679,-0.0262 1.0531,-0.0493 0.3738,-0.0229 0.7479,-0.0556 1.1285,-0.095 0.3772,-0.0427 0.738,-0.0951 1.0826,-0.1576 0.0526,-0.2394 0.0951,-0.5019 0.1248,-0.7873 0.0327,-0.2854 0.0556,-0.5773 0.0721,-0.8792 0.013,-0.3052 0.0196,-0.6005 0.0196,-0.8925 0,-1.0628 -0.2099,-1.8569 -0.63,-2.3817 -0.4198,-0.525 -1.0431,-0.7875 -1.8698,-0.7875 z m -0.1771,1.3977 c 0.2787,-0.003 0.5019,0.0623 0.6625,0.1903 0.1608,0.1279 0.279,0.338 0.3479,0.6234 0.0688,0.2854 0.1082,0.6658 0.1115,1.1352 0,0.1901 -0.007,0.3903 -0.0198,0.5969 -0.013,0.2099 -0.0394,0.4036 -0.0788,0.584 -0.1738,0.0493 -0.3738,0.0887 -0.6002,0.1181 -0.2264,0.0328 -0.4625,0.0557 -0.7054,0.0722 -0.246,0.0165 -0.4854,0.0262 -0.7185,0.0295 -0.233,0.003 -0.4429,0.003 -0.6332,-0.003 0.0297,-0.6627 0.0953,-1.2106 0.1903,-1.6437 0.0984,-0.4363 0.2198,-0.7774 0.3675,-1.0267 0.1476,-0.2495 0.3148,-0.4233 0.4953,-0.5283 0.1837,-0.1016 0.3773,-0.1509 0.5809,-0.1476 z"
             style="fill:#ffcb00;fill-rule:evenodd"
             id="path620" />
        </g>
        <g
           id="Layer1049">
          <path
             inkscape:connector-curvature="0"
             d="m 164.3791,783.3609 c 0.4143,0 0.738,0 0.9679,-0.007 0.2332,-0.003 0.4005,-0.0139 0.5048,-0.0348 0.101,-0.0209 0.1672,-0.0522 0.1916,-0.101 0.0209,-0.0453 0.0313,-0.1078 0.0277,-0.1914 v -5.5991 h 0.7312 c 0.0627,0 0.129,0 0.202,-0.003 0.0698,0 0.1428,-0.007 0.2159,-0.0176 0.1289,0.1708 0.2785,0.4111 0.4458,0.7244 0.1705,0.3133 0.3412,0.7068 0.5118,1.1873 0.174,0.477 0.3274,1.0516 0.4631,1.72 0.1358,0.6685 0.2333,1.4415 0.2925,2.3225 0.1879,0.0103 0.369,0.0209 0.5397,0.0279 0.1705,0.0104 0.3272,0.0139 0.463,0.0139 0.2611,0 0.4526,-0.0139 0.5745,-0.0383 0.1219,-0.0279 0.202,-0.0697 0.2367,-0.1324 0.035,-0.0625 0.0489,-0.1426 0.0454,-0.2471 -0.0557,-0.8252 -0.1567,-1.5634 -0.303,-2.211 -0.1461,-0.6513 -0.3202,-1.2223 -0.5154,-1.7132 -0.1949,-0.4909 -0.3934,-0.9087 -0.5954,-1.257 -0.2017,-0.3446 -0.3828,-0.6232 -0.5501,-0.8355 0.3657,-0.1985 0.6826,-0.477 0.9541,-0.8357 0.2715,-0.3551 0.4841,-0.8009 0.6337,-1.3371 0.1499,-0.5398 0.2264,-1.1803 0.2297,-1.9221 0,-0.9644 -0.1357,-1.7547 -0.4108,-2.3642 -0.275,-0.6093 -0.6997,-1.0584 -1.2674,-1.344 -0.5674,-0.2889 -1.2883,-0.4317 -2.1658,-0.4282 h -2.0681 c -0.1149,0.004 -0.1985,0.0348 -0.2508,0.0904 -0.0487,0.0592 -0.0801,0.1149 -0.0905,0.1708 -0.0103,0.0592 -0.0174,0.0904 -0.0138,0.0939 z m 4.387,-10.5712 c 0,0.7347 -0.066,1.3266 -0.1984,1.7795 -0.1358,0.4526 -0.3343,0.7833 -0.5955,0.9888 -0.2644,0.2053 -0.5919,0.3063 -0.9818,0.3028 h -0.9193 v -5.6406 h 1.0448 c 0.4072,0 0.7347,0.1045 0.9747,0.3133 0.2438,0.2055 0.4179,0.5015 0.5224,0.8845 0.1045,0.3829 0.1566,0.839 0.1531,1.3717 z m 2.7371,5.3482 c 0,0.9367 0.0451,1.7271 0.1357,2.3713 0.0869,0.6441 0.2229,1.1665 0.4005,1.5704 0.1775,0.4038 0.3969,0.7171 0.6579,0.9332 0.2647,0.2159 0.5712,0.362 0.9193,0.4421 0.3483,0.0801 0.7347,0.1183 1.1664,0.1148 0.7453,0.004 1.3719,-0.1844 1.8802,-0.5604 0.512,-0.3796 0.8949,-0.9715 1.1561,-1.7827 0.2574,-0.808 0.3897,-1.8596 0.3897,-3.1512 0,-1.055 -0.0661,-1.9325 -0.1983,-2.629 -0.1322,-0.6964 -0.3307,-1.2465 -0.5987,-1.6469 -0.2682,-0.4003 -0.6025,-0.6824 -1.0098,-0.8496 -0.4075,-0.167 -0.8845,-0.2506 -1.4311,-0.2436 -0.7347,-0.004 -1.358,0.1809 -1.8734,0.557 -0.5153,0.376 -0.9122,0.9646 -1.1837,1.7653 -0.2716,0.8009 -0.4073,1.8386 -0.4108,3.1093 z m 1.8383,0.0418 c 0,-0.8112 0.0383,-1.4762 0.1149,-1.9986 0.0766,-0.5221 0.1846,-0.9296 0.3239,-1.2185 0.1393,-0.2927 0.303,-0.4944 0.4944,-0.6095 0.1915,-0.1149 0.4038,-0.167 0.6337,-0.1635 0.2471,-0.007 0.4597,0.0418 0.6441,0.1428 0.1811,0.1008 0.3344,0.2889 0.4561,0.564 0.1219,0.275 0.2126,0.6719 0.2717,1.1873 0.0592,0.5153 0.0905,1.1873 0.0905,2.0126 0,0.8113 -0.0383,1.4798 -0.1149,2.0054 -0.0766,0.5259 -0.1811,0.9367 -0.3204,1.2327 -0.1392,0.2959 -0.3029,0.505 -0.4909,0.6233 -0.1881,0.1184 -0.3934,0.1741 -0.6198,0.1706 -0.1914,0.004 -0.3655,-0.0245 -0.5224,-0.0801 -0.1566,-0.0557 -0.2959,-0.1602 -0.4143,-0.3169 -0.1217,-0.1566 -0.2194,-0.3795 -0.3028,-0.672 -0.08,-0.2924 -0.1392,-0.6755 -0.181,-1.1455 -0.0418,-0.47 -0.0628,-1.048 -0.0628,-1.7341 z m 10.7171,3.5516 c -0.167,0.1149 -0.3587,0.195 -0.5675,0.2438 -0.2125,0.0486 -0.4317,0.0696 -0.6651,0.0696 -0.2471,0.007 -0.4665,-0.0416 -0.6579,-0.1393 -0.1952,-0.1008 -0.3587,-0.2819 -0.4947,-0.5431 -0.1357,-0.2647 -0.2367,-0.6442 -0.3063,-1.1316 -0.073,-0.4909 -0.108,-1.1246 -0.108,-1.9047 0.004,-0.853 0.0559,-1.5494 0.1567,-2.0925 0.1045,-0.5433 0.2438,-0.9646 0.4178,-1.2606 0.1743,-0.2994 0.3727,-0.5047 0.5886,-0.6198 0.2194,-0.1149 0.442,-0.1705 0.6755,-0.1635 0.2159,-0.004 0.397,0.0174 0.5431,0.0557 0.1463,0.0418 0.2856,0.1113 0.4178,0.2158 z m 0,-8.6073 c -0.1776,-0.1358 -0.3864,-0.2401 -0.6302,-0.3098 -0.2473,-0.0731 -0.5292,-0.1079 -0.8531,-0.1079 -0.4526,-0.004 -0.8704,0.1079 -1.2603,0.3272 -0.3901,0.2159 -0.7279,0.5607 -1.0203,1.0236 -0.2925,0.4667 -0.5224,1.069 -0.6859,1.8037 -0.1637,0.7382 -0.2473,1.6227 -0.2508,2.6534 0.004,0.9017 0.0627,1.6573 0.1811,2.2666 0.1184,0.6092 0.2821,1.1004 0.4944,1.4729 0.2123,0.369 0.4596,0.6511 0.7453,0.8425 0.2853,0.1917 0.5954,0.3169 0.9331,0.3831 0.3343,0.0662 0.6859,0.0939 1.0514,0.0904 0.6477,-0.007 1.2222,-0.0695 1.7202,-0.1879 0.5012,-0.1219 0.9226,-0.2682 1.2674,-0.4387 v -14.9374 c -0.4561,-0.004 -0.8045,0.003 -1.0516,0.0277 -0.2473,0.0245 -0.4143,0.0907 -0.5085,0.202 -0.0939,0.1081 -0.1357,0.2892 -0.1322,0.5433 z m 3.1965,5.0139 c 0,0.9367 0.0451,1.7271 0.1357,2.3713 0.0869,0.6441 0.2229,1.1665 0.4005,1.5704 0.1776,0.4038 0.3969,0.7171 0.6579,0.9332 0.2647,0.2159 0.5712,0.362 0.9193,0.4421 0.3483,0.0801 0.7347,0.1183 1.1664,0.1148 0.7453,0.004 1.3719,-0.1844 1.8802,-0.5604 0.512,-0.3796 0.8949,-0.9715 1.1561,-1.7827 0.2576,-0.808 0.3899,-1.8596 0.3899,-3.1512 0,-1.055 -0.066,-1.9325 -0.1985,-2.629 -0.1322,-0.6964 -0.3307,-1.2465 -0.5987,-1.6469 -0.2682,-0.4003 -0.6025,-0.6824 -1.0097,-0.8496 -0.4076,-0.167 -0.8846,-0.2506 -1.4312,-0.2436 -0.7347,-0.004 -1.358,0.1809 -1.8733,0.557 -0.5154,0.376 -0.9123,0.9646 -1.1838,1.7653 -0.2716,0.8009 -0.4073,1.8386 -0.4108,3.1093 z m 1.8384,0.0418 c 0,-0.8112 0.0382,-1.4762 0.1148,-1.9986 0.0766,-0.5221 0.1846,-0.9296 0.3239,-1.2185 0.1393,-0.2927 0.303,-0.4944 0.4944,-0.6095 0.1915,-0.1149 0.4038,-0.167 0.6337,-0.1635 0.2471,-0.007 0.4597,0.0418 0.6441,0.1428 0.1811,0.1008 0.3344,0.2889 0.4561,0.564 0.1219,0.275 0.2126,0.6719 0.2718,1.1873 0.0591,0.5153 0.0904,1.1873 0.0904,2.0126 0,0.8113 -0.0383,1.4798 -0.1149,2.0054 -0.0765,0.5259 -0.1811,0.9367 -0.3203,1.2327 -0.1393,0.2959 -0.303,0.505 -0.4909,0.6233 -0.1882,0.1184 -0.3935,0.1741 -0.6199,0.1706 -0.1914,0.004 -0.3655,-0.0245 -0.5223,-0.0801 -0.1567,-0.0557 -0.296,-0.1602 -0.4144,-0.3169 -0.1217,-0.1566 -0.2194,-0.3795 -0.3027,-0.672 -0.0801,-0.2924 -0.1393,-0.6755 -0.1811,-1.1455 -0.0418,-0.47 -0.0627,-1.048 -0.0627,-1.7341 z m 7.6464,4.2828 c 0.0486,0.195 0.1043,0.3727 0.1705,0.5259 0.0663,0.1531 0.1497,0.275 0.2438,0.3622 0.094,0.0869 0.2053,0.1322 0.3378,0.1357 0.0939,0 0.2158,0 0.3584,-0.004 0.1464,0 0.2962,-0.007 0.4458,-0.0139 0.1496,-0.0105 0.2786,-0.0244 0.3864,-0.0453 l 2.4026,-10.5084 c -0.4247,0 -0.7556,0 -0.9957,0.007 -0.237,0.003 -0.411,0.0174 -0.5224,0.0383 -0.108,0.0242 -0.1775,0.0627 -0.2123,0.1148 -0.0315,0.0487 -0.0559,0.1219 -0.0662,0.2159 l -0.5642,2.9456 c -0.0834,0.4458 -0.1635,0.909 -0.24,1.3928 -0.0768,0.4876 -0.1464,0.9612 -0.2126,1.4241 -0.066,0.4597 -0.1219,0.8775 -0.167,1.2536 -0.0489,0.3725 -0.0871,0.6719 -0.1116,0.8948 -0.0277,0.2229 -0.0418,0.3343 -0.0418,0.3413 h -0.0418 c 0,-0.007 -0.0138,-0.1184 -0.0416,-0.3413 -0.0279,-0.2229 -0.0697,-0.5188 -0.1183,-0.8948 -0.0524,-0.3726 -0.1116,-0.7904 -0.1776,-1.2501 -0.0698,-0.4596 -0.1428,-0.9331 -0.2229,-1.417 -0.0801,-0.4806 -0.1672,-0.9437 -0.2542,-1.3825 l -0.6686,-3.3425 c -0.4595,0 -0.8217,0 -1.0828,0.007 -0.2612,0.007 -0.4491,0.0277 -0.5607,0.0592 -0.1148,0.0312 -0.1811,0.0834 -0.1949,0.1531 -0.0174,0.0731 -0.0104,0.1741 0.0209,0.303 z m 7.3745,-9.5473 c -0.4561,-0.004 -0.8113,0.003 -1.0619,0.0279 -0.2543,0.0242 -0.4284,0.0904 -0.5294,0.2018 -0.0975,0.108 -0.1461,0.2891 -0.1426,0.5432 v 9.6728 c 0.4247,0 0.7554,0 0.9922,-0.007 0.2402,-0.003 0.411,-0.0139 0.5153,-0.0348 0.108,-0.0209 0.1707,-0.0522 0.1952,-0.101 0.0242,-0.0453 0.0347,-0.1078 0.0312,-0.1914 z m -1.7132,-3.3217 c 0,0.3237 0.035,0.5849 0.101,0.7763 0.0662,0.1952 0.1637,0.3309 0.2927,0.4145 0.1287,0.0869 0.2818,0.1252 0.4629,0.1252 0.3239,-0.004 0.5642,-0.1219 0.7244,-0.3586 0.1566,-0.2368 0.2367,-0.5675 0.2367,-0.9992 0.0139,-0.4352 -0.0418,-0.7453 -0.1672,-0.9367 -0.1252,-0.1881 -0.3481,-0.2786 -0.6685,-0.275 -0.3307,0.003 -0.578,0.1183 -0.7347,0.3445 -0.1566,0.2229 -0.2403,0.5259 -0.2473,0.909 z m 3.301,4.2619 c -0.003,0.1287 0.0141,0.2785 0.0453,0.4491 0.0315,0.1705 0.094,0.3412 0.1846,0.5118 0.2053,-0.0837 0.4562,-0.1602 0.7521,-0.2298 0.2959,-0.0697 0.6163,-0.1254 0.9609,-0.1672 0.3448,-0.0418 0.6929,-0.0627 1.0447,-0.0627 0.2786,-0.003 0.5153,0.0315 0.7068,0.101 0.1914,0.0698 0.3377,0.195 0.4387,0.376 0.101,0.1776 0.1497,0.4318 0.1497,0.7556 v 1.6505 c -0.1426,-0.0697 -0.3028,-0.1219 -0.4771,-0.1637 -0.1776,-0.0383 -0.3586,-0.0662 -0.5395,-0.0836 -0.1846,-0.0174 -0.3518,-0.0242 -0.5085,-0.0242 -0.3552,-0.004 -0.6964,0.0383 -1.0236,0.1252 -0.3307,0.0907 -0.6267,0.2577 -0.8914,0.498 -0.2612,0.2438 -0.47,0.5883 -0.6269,1.0412 -0.1531,0.4526 -0.2332,1.0409 -0.2367,1.7618 0.004,0.7103 0.0871,1.2777 0.2543,1.7061 0.1635,0.4282 0.3864,0.7486 0.6685,0.9609 0.2821,0.2159 0.5989,0.3552 0.9541,0.4249 0.3551,0.066 0.7241,0.094 1.1107,0.0834 0.4526,-0.003 0.8634,-0.0383 1.2327,-0.1113 0.3654,-0.0696 0.6893,-0.1602 0.9677,-0.2647 0.2818,-0.1078 0.5153,-0.2194 0.7032,-0.3343 0.0244,-0.4004 0.0489,-0.8495 0.0627,-1.3475 0.0174,-0.4979 0.0313,-1.0306 0.0383,-1.5946 0.0106,-0.5676 0.0174,-1.149 0.0209,-1.7514 0.004,-0.599 0.004,-1.2012 0.004,-1.8037 v -1.1072 c 0,-0.6233 -0.0906,-1.1211 -0.2715,-1.4973 -0.1846,-0.3725 -0.4667,-0.6441 -0.8496,-0.8078 -0.3828,-0.167 -0.8704,-0.2471 -1.4691,-0.2436 -0.533,0.003 -1.0168,0.0348 -1.4485,0.094 -0.4353,0.0627 -0.801,0.1358 -1.1004,0.2229 -0.296,0.0834 -0.5048,0.167 -0.6267,0.2471 -0.0836,0.0662 -0.1428,0.1498 -0.1776,0.2541 -0.0347,0.1046 -0.0523,0.2126 -0.0523,0.331 z m 4.2828,4.5752 c 0,0.2854 0,0.5848 0,0.9052 0,0.3168 -0.004,0.6302 -0.007,0.9402 -0.004,0.3098 -0.0105,0.5987 -0.0174,0.8599 -0.0105,0.2647 -0.0209,0.4841 -0.0385,0.6581 -0.1007,0.0975 -0.2506,0.1811 -0.4526,0.2474 -0.202,0.0695 -0.4178,0.1042 -0.6546,0.1078 -0.2053,0.004 -0.3899,-0.0209 -0.5571,-0.0663 -0.1635,-0.0451 -0.3063,-0.1322 -0.4282,-0.2609 -0.1184,-0.1254 -0.2123,-0.3065 -0.275,-0.5468 -0.0628,-0.2368 -0.0975,-0.5431 -0.0975,-0.9226 0,-0.4526 0.0418,-0.8183 0.1254,-1.0969 0.0799,-0.2786 0.1914,-0.4944 0.3342,-0.6407 0.1426,-0.1461 0.3063,-0.2471 0.4909,-0.2993 0.1879,-0.0524 0.3864,-0.0768 0.5955,-0.0733 0.1531,0 0.3168,0.0141 0.4979,0.0454 0.1811,0.0312 0.3413,0.0801 0.4839,0.1428 z m 6.539,-5.7243 c -0.7801,0.003 -1.4208,0.1079 -1.9223,0.3134 -0.5047,0.2053 -0.8772,0.4944 -1.121,0.8634 -0.2438,0.3692 -0.3622,0.7974 -0.3622,1.2883 -0.003,0.2299 0.0314,0.4667 0.101,0.707 0.0697,0.2436 0.1881,0.4909 0.3622,0.7415 0.174,0.2541 0.4178,0.5083 0.7276,0.7659 l 2.0265,1.7341 c 0.3098,0.2786 0.5257,0.5501 0.6546,0.8148 0.1255,0.2647 0.1847,0.5363 0.1811,0.8148 -0.004,0.4212 -0.1531,0.7415 -0.4458,0.9609 -0.2959,0.2229 -0.7102,0.3343 -1.2465,0.3343 -0.4072,0 -0.7798,-0.0416 -1.121,-0.1288 -0.3448,-0.0836 -0.6652,-0.2158 -0.968,-0.3934 -0.1115,0.1914 -0.1916,0.369 -0.2334,0.5398 -0.0416,0.167 -0.0625,0.3168 -0.0592,0.442 0.004,0.2438 0.1151,0.4423 0.3309,0.6025 0.2159,0.1566 0.5153,0.2715 0.8982,0.3481 0.3796,0.0765 0.8218,0.1148 1.3198,0.1148 0.7138,0 1.3266,-0.1148 1.8419,-0.341 0.5118,-0.2229 0.9087,-0.5503 1.1838,-0.9821 0.2785,-0.4317 0.4178,-0.9609 0.4213,-1.5807 0,-0.3448 -0.0382,-0.6616 -0.1183,-0.947 -0.0836,-0.2856 -0.2159,-0.5607 -0.397,-0.8287 -0.1811,-0.2682 -0.4178,-0.5468 -0.7173,-0.8357 l -1.9429,-1.5668 c -0.2332,-0.195 -0.4108,-0.3657 -0.5327,-0.5118 -0.1219,-0.1499 -0.202,-0.2857 -0.2438,-0.4111 -0.0418,-0.1252 -0.0627,-0.2506 -0.0592,-0.3725 0.004,-0.2159 0.0733,-0.4005 0.209,-0.5466 0.1393,-0.1498 0.3307,-0.2647 0.5781,-0.3412 0.2471,-0.0766 0.5327,-0.1149 0.8634,-0.1149 0.3934,0 0.7556,0.0418 1.0863,0.1287 0.3307,0.0907 0.6511,0.2264 0.9611,0.4143 0.1149,-0.1287 0.2088,-0.268 0.2751,-0.4211 0.066,-0.1534 0.101,-0.2962 0.101,-0.4352 0.004,-0.1081 -0.035,-0.2264 -0.1081,-0.3587 -0.0766,-0.1324 -0.2088,-0.2612 -0.4004,-0.3831 -0.1915,-0.1219 -0.4595,-0.2229 -0.8043,-0.303 -0.3448,-0.0801 -0.7835,-0.1219 -1.3195,-0.1252 z m 10.78,0 c -0.3693,-0.004 -0.7347,0.0348 -1.0899,0.1184 -0.3586,0.0869 -0.6929,0.2471 -1.0062,0.4804 -0.3136,0.2334 -0.5886,0.5745 -0.8289,1.0167 -0.2403,0.4423 -0.4282,1.0203 -0.5639,1.7306 -0.1358,0.7138 -0.2055,1.5878 -0.2091,2.6288 0,0.8113 0.0559,1.5006 0.1602,2.0718 0.1081,0.571 0.2577,1.041 0.4562,1.41 0.1984,0.3657 0.4352,0.6546 0.7102,0.8601 0.2753,0.2056 0.5816,0.3481 0.9229,0.4282 0.3377,0.0837 0.7032,0.1219 1.0933,0.1184 0.3934,0 0.766,-0.0312 1.1108,-0.0869 0.3481,-0.0592 0.6546,-0.1393 0.919,-0.2438 0.2647,-0.1045 0.4736,-0.2262 0.6234,-0.3655 0.1496,-0.1393 0.2262,-0.2891 0.2297,-0.4528 0,-0.1149 -0.004,-0.2401 -0.0138,-0.376 -0.0106,-0.1393 -0.028,-0.2751 -0.0489,-0.4109 -0.0209,-0.1357 -0.0486,-0.2541 -0.0834,-0.3621 -0.3586,0.202 -0.7382,0.3586 -1.1422,0.4737 -0.4073,0.1149 -0.8181,0.1705 -1.2394,0.1741 -0.3169,0.004 -0.5955,-0.0383 -0.8287,-0.1255 -0.2368,-0.0871 -0.4319,-0.2367 -0.5886,-0.4422 -0.1602,-0.2089 -0.2786,-0.498 -0.3655,-0.8599 -0.0871,-0.3657 -0.1393,-0.8219 -0.1602,-1.372 0.2542,0 0.5536,-0.004 0.9017,-0.0138 0.3484,-0.0106 0.7209,-0.028 1.1178,-0.0524 0.397,-0.0242 0.7939,-0.0592 1.1977,-0.101 0.4004,-0.0451 0.7835,-0.101 1.1492,-0.167 0.0557,-0.2541 0.1008,-0.5327 0.1323,-0.8357 0.0347,-0.303 0.0592,-0.6128 0.0765,-0.9332 0.0139,-0.3239 0.0209,-0.6372 0.0209,-0.947 0,-1.1281 -0.2229,-1.9709 -0.6684,-2.528 -0.4458,-0.5571 -1.1072,-0.8355 -1.9847,-0.8355 z m -0.1882,1.4833 c 0.296,-0.004 0.5327,0.066 0.7035,0.202 0.1705,0.1358 0.2959,0.3584 0.369,0.6614 0.073,0.303 0.1148,0.7068 0.1184,1.2047 0,0.202 -0.007,0.4143 -0.0209,0.6337 -0.0139,0.2229 -0.0419,0.4284 -0.0837,0.6199 -0.1844,0.0521 -0.3969,0.0939 -0.637,0.1254 -0.2402,0.0347 -0.4911,0.0592 -0.7487,0.0766 -0.261,0.0173 -0.5154,0.0279 -0.7625,0.0312 -0.2473,0.004 -0.47,0.004 -0.672,-0.003 0.0313,-0.7035 0.101,-1.285 0.202,-1.7444 0.1043,-0.4632 0.2333,-0.8254 0.3899,-1.0899 0.1567,-0.2647 0.3343,-0.4493 0.5257,-0.5606 0.1952,-0.1081 0.4005,-0.1602 0.6163,-0.1567 z m 8.9627,9.1713 c 0.1149,-0.004 0.1985,-0.0348 0.2438,-0.0871 0.0487,-0.0522 0.0766,-0.1078 0.0836,-0.1602 0.007,-0.0557 0.0104,-0.0834 0.007,-0.0869 v -6.8524 h 2.8204 c 0.101,0.003 0.1775,-0.035 0.2194,-0.1184 0.0453,-0.0836 0.073,-0.2369 0.0836,-0.4596 0.007,-0.2264 0.0138,-0.5468 0.0103,-0.9679 h -3.1337 v -4.4291 h 3.3218 c 0.0766,0.004 0.1393,-0.0104 0.1809,-0.0348 0.0418,-0.028 0.0733,-0.0871 0.0942,-0.1811 0.0174,-0.0907 0.0277,-0.2368 0.0348,-0.4352 0.004,-0.1985 0.004,-0.47 0.004,-0.8113 h -4.9931 c -0.108,0.004 -0.1881,0.0348 -0.2403,0.0904 -0.0523,0.0592 -0.0836,0.1149 -0.0974,0.1708 -0.0141,0.0592 -0.0174,0.0904 -0.0174,0.0939 v 14.2689 z m 7.9805,-10.6546 c -0.3692,-0.004 -0.7345,0.0348 -1.0896,0.1184 -0.3587,0.0869 -0.6929,0.2471 -1.0062,0.4804 -0.3136,0.2334 -0.5886,0.5745 -0.8289,1.0167 -0.2403,0.4423 -0.4282,1.0203 -0.564,1.7306 -0.1357,0.7138 -0.2055,1.5878 -0.209,2.6288 0,0.8113 0.0559,1.5006 0.1602,2.0718 0.108,0.571 0.2577,1.041 0.4561,1.41 0.1985,0.3657 0.4353,0.6546 0.7103,0.8601 0.2753,0.2056 0.5816,0.3481 0.9228,0.4282 0.3378,0.0837 0.7033,0.1219 1.0932,0.1184 0.3934,0 0.7659,-0.0312 1.1107,-0.0869 0.3481,-0.0592 0.6546,-0.1393 0.9191,-0.2438 0.2647,-0.1045 0.4735,-0.2262 0.6234,-0.3655 0.1496,-0.1393 0.2261,-0.2891 0.2297,-0.4528 0,-0.1149 -0.004,-0.2401 -0.0139,-0.376 -0.0106,-0.1393 -0.0279,-0.2751 -0.0488,-0.4109 -0.0209,-0.1357 -0.0487,-0.2541 -0.0834,-0.3621 -0.3587,0.202 -0.7383,0.3586 -1.1422,0.4737 -0.4073,0.1149 -0.8181,0.1705 -1.2395,0.1741 -0.3169,0.004 -0.5954,-0.0383 -0.8284,-0.1255 -0.2368,-0.0871 -0.432,-0.2367 -0.5886,-0.4422 -0.1602,-0.2089 -0.2786,-0.498 -0.3655,-0.8599 -0.0871,-0.3657 -0.1393,-0.8219 -0.1602,-1.372 0.2541,0 0.5536,-0.004 0.9017,-0.0138 0.3483,-0.0106 0.7206,-0.028 1.1176,-0.0524 0.3969,-0.0242 0.7939,-0.0592 1.1976,-0.101 0.4005,-0.0451 0.7836,-0.101 1.1493,-0.167 0.0556,-0.2541 0.1007,-0.5327 0.1322,-0.8357 0.0348,-0.303 0.0592,-0.6128 0.0766,-0.9332 0.0138,-0.3239 0.0209,-0.6372 0.0209,-0.947 0,-1.1281 -0.2229,-1.9709 -0.6685,-2.528 -0.4458,-0.5571 -1.1072,-0.8355 -1.9847,-0.8355 z m -0.1881,1.4833 c 0.2959,-0.004 0.5327,0.066 0.7034,0.202 0.1706,0.1358 0.296,0.3584 0.369,0.6614 0.0731,0.303 0.1149,0.7068 0.1184,1.2047 0,0.202 -0.007,0.4143 -0.0209,0.6337 -0.0139,0.2229 -0.0418,0.4284 -0.0836,0.6199 -0.1844,0.0521 -0.397,0.0939 -0.637,0.1254 -0.2403,0.0347 -0.4911,0.0592 -0.7488,0.0766 -0.2607,0.0173 -0.5151,0.0279 -0.7622,0.0312 -0.2473,0.004 -0.47,0.004 -0.672,-0.003 0.0313,-0.7035 0.101,-1.285 0.202,-1.7444 0.1043,-0.4632 0.2332,-0.8254 0.3899,-1.0899 0.1567,-0.2647 0.3342,-0.4493 0.5257,-0.5606 0.1949,-0.1081 0.4002,-0.1602 0.6161,-0.1567 z m 4.3248,9.1713 c 0.4176,0 0.745,0 0.9818,-0.007 0.2367,-0.003 0.404,-0.0139 0.5083,-0.0348 0.1045,-0.0209 0.1707,-0.0522 0.1916,-0.101 0.0242,-0.0453 0.0348,-0.1078 0.0312,-0.1914 l 0.0209,-8.2104 c 0.202,-0.167 0.4249,-0.2889 0.6652,-0.3655 0.2436,-0.0768 0.4804,-0.1151 0.7138,-0.1151 0.3552,0 0.6894,0.0836 1.0027,0.2508 0.0731,-0.1846 0.1219,-0.3657 0.1496,-0.5503 0.028,-0.1808 0.0383,-0.3342 0.0383,-0.4526 0.007,-0.2821 -0.1043,-0.5012 -0.3307,-0.6511 -0.2262,-0.1496 -0.6057,-0.2262 -1.1316,-0.2262 -0.5154,0.003 -1.0166,0.0905 -1.5007,0.2577 -0.4805,0.1705 -0.9296,0.3969 -1.3404,0.6823 z m 5.4109,0 c 0.4176,0 0.745,0 0.9818,-0.007 0.2367,-0.003 0.4039,-0.0139 0.5082,-0.0348 0.1046,-0.0209 0.1708,-0.0522 0.1917,-0.101 0.0242,-0.0453 0.0348,-0.1078 0.0312,-0.1914 l 0.0209,-8.2104 c 0.202,-0.167 0.4249,-0.2889 0.6652,-0.3655 0.2436,-0.0768 0.4803,-0.1151 0.7138,-0.1151 0.3551,0 0.6894,0.0836 1.0027,0.2508 0.0731,-0.1846 0.1219,-0.3657 0.1496,-0.5503 0.028,-0.1808 0.0383,-0.3342 0.0383,-0.4526 0.007,-0.2821 -0.1043,-0.5012 -0.3307,-0.6511 -0.2262,-0.1496 -0.6058,-0.2262 -1.1316,-0.2262 -0.5154,0.003 -1.0166,0.0905 -1.5007,0.2577 -0.4805,0.1705 -0.9296,0.3969 -1.3404,0.6823 z m 4.6379,-5.223 c 0,0.9367 0.0451,1.7271 0.1357,2.3713 0.0869,0.6441 0.2229,1.1665 0.4005,1.5704 0.1776,0.4038 0.3969,0.7171 0.6579,0.9332 0.2647,0.2159 0.5712,0.362 0.9193,0.4421 0.3483,0.0801 0.7347,0.1183 1.1664,0.1148 0.7453,0.004 1.3719,-0.1844 1.8802,-0.5604 0.5121,-0.3796 0.8949,-0.9715 1.1561,-1.7827 0.2577,-0.808 0.3899,-1.8596 0.3899,-3.1512 0,-1.055 -0.066,-1.9325 -0.1985,-2.629 -0.1322,-0.6964 -0.3307,-1.2465 -0.5987,-1.6469 -0.2682,-0.4003 -0.6024,-0.6824 -1.0097,-0.8496 -0.4075,-0.167 -0.8846,-0.2506 -1.4311,-0.2436 -0.7347,-0.004 -1.3581,0.1809 -1.8734,0.557 -0.5154,0.376 -0.9123,0.9646 -1.1838,1.7653 -0.2715,0.8009 -0.4073,1.8386 -0.4108,3.1093 z m 1.8384,0.0418 c 0,-0.8112 0.0383,-1.4762 0.1148,-1.9986 0.0766,-0.5221 0.1846,-0.9296 0.3239,-1.2185 0.1393,-0.2927 0.303,-0.4944 0.4944,-0.6095 0.1915,-0.1149 0.4038,-0.167 0.6337,-0.1635 0.2471,-0.007 0.4597,0.0418 0.6441,0.1428 0.1811,0.1008 0.3344,0.2889 0.4561,0.564 0.1219,0.275 0.2126,0.6719 0.2718,1.1873 0.0592,0.5153 0.0904,1.1873 0.0904,2.0126 0,0.8113 -0.0383,1.4798 -0.1149,2.0054 -0.0765,0.5259 -0.181,0.9367 -0.3203,1.2327 -0.1393,0.2959 -0.303,0.505 -0.4909,0.6233 -0.1882,0.1184 -0.3935,0.1741 -0.6199,0.1706 -0.1914,0.004 -0.3654,-0.0245 -0.5223,-0.0801 -0.1567,-0.0557 -0.296,-0.1602 -0.4144,-0.3169 -0.1216,-0.1566 -0.2193,-0.3795 -0.3027,-0.672 -0.0801,-0.2924 -0.1393,-0.6755 -0.1811,-1.1455 -0.0418,-0.47 -0.0627,-1.048 -0.0627,-1.7341 z m 7.6464,4.2828 c 0.0487,0.195 0.1043,0.3727 0.1706,0.5259 0.0662,0.1531 0.1496,0.275 0.2438,0.3622 0.0939,0.0869 0.2052,0.1322 0.3377,0.1357 0.094,0 0.2159,0 0.3584,-0.004 0.1464,0 0.2962,-0.007 0.4458,-0.0139 0.1497,-0.0105 0.2786,-0.0244 0.3864,-0.0453 l 2.4026,-10.5084 c -0.4247,0 -0.7556,0 -0.9957,0.007 -0.2369,0.003 -0.411,0.0174 -0.5223,0.0383 -0.1081,0.0242 -0.1776,0.0627 -0.2124,0.1148 -0.0314,0.0487 -0.0559,0.1219 -0.0662,0.2159 l -0.5642,2.9456 c -0.0834,0.4458 -0.1635,0.909 -0.24,1.3928 -0.0768,0.4876 -0.1464,0.9612 -0.2126,1.4241 -0.066,0.4597 -0.1219,0.8775 -0.167,1.2536 -0.0488,0.3725 -0.0871,0.6719 -0.1116,0.8948 -0.0277,0.2229 -0.0418,0.3343 -0.0418,0.3413 h -0.0418 c 0,-0.007 -0.0138,-0.1184 -0.0416,-0.3413 -0.0279,-0.2229 -0.0697,-0.5188 -0.1183,-0.8948 -0.0524,-0.3726 -0.1116,-0.7904 -0.1776,-1.2501 -0.0697,-0.4596 -0.1428,-0.9331 -0.2229,-1.417 -0.0801,-0.4806 -0.1672,-0.9437 -0.2541,-1.3825 l -0.6687,-3.3425 c -0.4595,0 -0.8216,0 -1.0828,0.007 -0.2612,0.007 -0.4491,0.0277 -0.5607,0.0592 -0.1148,0.0312 -0.1811,0.0834 -0.1949,0.1531 -0.0174,0.0731 -0.0104,0.1741 0.0209,0.303 z m 7.3745,-9.5473 c -0.4561,-0.004 -0.8113,0.003 -1.0619,0.0279 -0.2543,0.0242 -0.4284,0.0904 -0.5294,0.2018 -0.0975,0.108 -0.1461,0.2891 -0.1426,0.5432 v 9.6728 c 0.4247,0 0.7554,0 0.9922,-0.007 0.2403,-0.003 0.411,-0.0139 0.5153,-0.0348 0.108,-0.0209 0.1708,-0.0522 0.1952,-0.101 0.0242,-0.0453 0.0347,-0.1078 0.0312,-0.1914 z m -1.7132,-3.3217 c 0,0.3237 0.035,0.5849 0.101,0.7763 0.0662,0.1952 0.1637,0.3309 0.2927,0.4145 0.1287,0.0869 0.2818,0.1252 0.4629,0.1252 0.3239,-0.004 0.5642,-0.1219 0.7244,-0.3586 0.1566,-0.2368 0.2367,-0.5675 0.2367,-0.9992 0.0139,-0.4352 -0.0418,-0.7453 -0.1672,-0.9367 -0.1252,-0.1881 -0.3481,-0.2786 -0.6685,-0.275 -0.3307,0.003 -0.578,0.1183 -0.7347,0.3445 -0.1566,0.2229 -0.2402,0.5259 -0.2473,0.909 z"
             style="fill:#ffcb00;fill-rule:evenodd"
             id="path623" />
          <path
             inkscape:connector-curvature="0"
             d="m 276.6914,773.8554 c -0.003,0.1287 0.0141,0.2785 0.0453,0.4491 0.0315,0.1705 0.094,0.3412 0.1846,0.5118 0.2053,-0.0837 0.4561,-0.1602 0.7521,-0.2298 0.2959,-0.0697 0.6163,-0.1254 0.9609,-0.1672 0.3448,-0.0418 0.6929,-0.0627 1.0447,-0.0627 0.2786,-0.003 0.5153,0.0315 0.7068,0.101 0.1914,0.0698 0.3377,0.195 0.4387,0.376 0.101,0.1776 0.1496,0.4318 0.1496,0.7556 v 1.6505 c -0.1425,-0.0697 -0.3027,-0.1219 -0.477,-0.1637 -0.1776,-0.0383 -0.3586,-0.0662 -0.5395,-0.0836 -0.1846,-0.0174 -0.3519,-0.0242 -0.5085,-0.0242 -0.3552,-0.004 -0.6964,0.0383 -1.0236,0.1252 -0.3307,0.0907 -0.6267,0.2577 -0.8914,0.498 -0.2612,0.2438 -0.47,0.5883 -0.6269,1.0412 -0.1531,0.4526 -0.2332,1.0409 -0.2367,1.7618 0.003,0.7103 0.0871,1.2777 0.2543,1.7061 0.1635,0.4282 0.3864,0.7486 0.6685,0.9609 0.2821,0.2159 0.5989,0.3552 0.9541,0.4249 0.3551,0.066 0.7241,0.094 1.1107,0.0834 0.4526,-0.003 0.8634,-0.0383 1.2327,-0.1113 0.3654,-0.0696 0.6893,-0.1602 0.9679,-0.2647 0.2819,-0.1078 0.5153,-0.2194 0.7032,-0.3343 0.0244,-0.4004 0.0489,-0.8495 0.0627,-1.3475 0.0174,-0.4979 0.0313,-1.0306 0.0383,-1.5946 0.0106,-0.5676 0.0174,-1.149 0.0209,-1.7514 0.003,-0.599 0.003,-1.2012 0.003,-1.8037 v -1.1072 c 0,-0.6233 -0.0906,-1.1211 -0.2715,-1.4973 -0.1846,-0.3725 -0.4667,-0.6441 -0.8498,-0.8078 -0.3828,-0.167 -0.8704,-0.2471 -1.4691,-0.2436 -0.533,0.003 -1.0168,0.0348 -1.4485,0.094 -0.4353,0.0627 -0.801,0.1358 -1.1004,0.2229 -0.296,0.0834 -0.5048,0.167 -0.6267,0.2471 -0.0836,0.0662 -0.1428,0.1498 -0.1776,0.2541 -0.0347,0.1046 -0.0523,0.2126 -0.0523,0.331 z m 4.2827,4.5752 c 0,0.2854 0,0.5848 0,0.9052 0,0.3168 -0.004,0.6302 -0.007,0.9402 -0.004,0.3098 -0.0105,0.5987 -0.0174,0.8599 -0.0105,0.2647 -0.0209,0.4841 -0.0385,0.6581 -0.1007,0.0975 -0.2506,0.1811 -0.4526,0.2474 -0.202,0.0695 -0.4178,0.1042 -0.6546,0.1078 -0.2053,0.004 -0.3899,-0.0209 -0.5571,-0.0663 -0.1635,-0.0451 -0.3063,-0.1322 -0.4282,-0.2609 -0.1184,-0.1254 -0.2123,-0.3065 -0.275,-0.5468 -0.0628,-0.2368 -0.0975,-0.5431 -0.0975,-0.9226 0,-0.4526 0.0418,-0.8183 0.1254,-1.0969 0.0799,-0.2786 0.1914,-0.4944 0.3342,-0.6407 0.1426,-0.1461 0.3063,-0.2471 0.4909,-0.2993 0.1879,-0.0524 0.3864,-0.0768 0.5954,-0.0733 0.1532,0 0.3169,0.0141 0.498,0.0454 0.1811,0.0312 0.3413,0.0801 0.4838,0.1428 z m 6.5393,-5.7243 c -0.78,0.003 -1.4208,0.1079 -1.9222,0.3134 -0.5048,0.2053 -0.8773,0.4944 -1.1211,0.8634 -0.2438,0.3692 -0.3622,0.7974 -0.3622,1.2883 -0.003,0.2299 0.0315,0.4667 0.101,0.707 0.0697,0.2436 0.1881,0.4909 0.3622,0.7415 0.174,0.2541 0.4178,0.5083 0.7276,0.7659 l 2.0266,1.7341 c 0.3098,0.2786 0.5256,0.5501 0.6546,0.8148 0.1254,0.2647 0.1846,0.5363 0.1811,0.8148 -0.004,0.4212 -0.1532,0.7415 -0.4458,0.9609 -0.296,0.2229 -0.7103,0.3343 -1.2465,0.3343 -0.4073,0 -0.7798,-0.0416 -1.1211,-0.1288 -0.3448,-0.0836 -0.6652,-0.2158 -0.968,-0.3934 -0.1115,0.1914 -0.1916,0.369 -0.2334,0.5398 -0.0416,0.167 -0.0625,0.3168 -0.0592,0.442 0.004,0.2438 0.1151,0.4423 0.3309,0.6025 0.2159,0.1566 0.5153,0.2715 0.8982,0.3481 0.3796,0.0765 0.8218,0.1148 1.3198,0.1148 0.7138,0 1.3266,-0.1148 1.8419,-0.341 0.5118,-0.2229 0.9087,-0.5503 1.1838,-0.9821 0.2786,-0.4317 0.4178,-0.9609 0.4214,-1.5807 0,-0.3448 -0.0383,-0.6616 -0.1184,-0.947 -0.0836,-0.2856 -0.2159,-0.5607 -0.397,-0.8287 -0.1811,-0.2682 -0.4178,-0.5468 -0.7173,-0.8357 l -1.9429,-1.5668 c -0.2332,-0.195 -0.4108,-0.3657 -0.5327,-0.5118 -0.1219,-0.1499 -0.202,-0.2857 -0.2438,-0.4111 -0.0418,-0.1252 -0.0627,-0.2506 -0.0592,-0.3725 0.003,-0.2159 0.0733,-0.4005 0.209,-0.5466 0.1393,-0.1498 0.3308,-0.2647 0.5781,-0.3412 0.2471,-0.0766 0.5327,-0.1149 0.8634,-0.1149 0.3934,0 0.7556,0.0418 1.0863,0.1287 0.3307,0.0907 0.6511,0.2264 0.9611,0.4143 0.1149,-0.1287 0.2088,-0.268 0.2751,-0.4211 0.066,-0.1534 0.101,-0.2962 0.101,-0.4352 0.004,-0.1081 -0.035,-0.2264 -0.1081,-0.3587 -0.0765,-0.1324 -0.2088,-0.2612 -0.4004,-0.3831 -0.1915,-0.1219 -0.4595,-0.2229 -0.8043,-0.303 -0.3448,-0.0801 -0.7835,-0.1219 -1.3195,-0.1252 z"
             style="fill:#ffcb00;fill-rule:evenodd"
             id="path625" />
        </g>
      </g>
    </g>
    <g
       transform="matrix(0.26458333,0,0,0.26458333,79.906357,-113.60943)"
       id="Layer1050">
      <path
         inkscape:connector-curvature="0"
         d="m 63.924,683.2769 c 11.7193,0 23.4739,0 35.2051,0 11.7309,0 23.4859,0 35.2404,0 12.8923,0 22.3072,12.3288 20.9421,26.7356 -1.0944,11.5519 -2.1482,22.6663 -3.1604,33.3429 -0.9736,10.2719 -1.9134,20.1939 -2.8184,29.7437 -1.0383,10.9611 -10.5481,19.5599 -21.139,19.5471 -9.6466,-0.0114 -19.3128,-0.0233 -28.9497,-0.0348 -9.6371,-0.0114 -19.2839,-0.0233 -28.9208,-0.0347 -10.5716,-0.0128 -20.0498,-8.623 -21.1095,-19.5726 -0.9231,-9.5397 -1.8811,-19.4514 -2.8752,-29.7233 -1.0322,-10.6654 -2.1073,-21.7679 -3.2242,-33.3075 -1.392,-14.3806 7.9404,-26.6964 20.8096,-26.6964 z"
         style="fill:#ffcb00;fill-rule:evenodd"
         id="path630" />
      <g
         id="Layer1051">
        <g
           id="Layer1052">
          <path
             inkscape:connector-curvature="0"
             d="m 94.6001,697.3381 c -3.3962,6.569 -5.9224,13.5072 -8.2906,20.4993 -2.3541,6.953 -4.9998,13.8589 -7.1767,20.8634 -0.9219,2.9668 -1.6651,5.6927 -1.0988,8.7545 0.6015,3.2489 2.6173,6.1404 3.823,9.1854 2.9556,7.466 0.3014,14.7917 -2.9923,21.6794 -0.1677,0.3514 0.3151,0.5559 0.8041,0.5635 h 0.0544 c 0.3424,-0.005 0.676,-0.1074 0.7798,-0.3244 2.7789,-5.8113 5.3532,-12.1959 4.0411,-18.706 -0.6189,-3.0698 -2.058,-5.9517 -3.4747,-8.7151 -2.0549,-3.4597 -2.1718,-7.093 -1.1809,-10.8271 0.7738,-3.7404 2.3069,-7.3769 3.5601,-10.9735 1.2277,-3.5228 2.544,-7.0364 3.7282,-10.5745 2.4504,-7.3206 4.8058,-14.1608 8.3576,-21.0305 0.3711,-0.7169 -0.6587,-0.9273 -0.9343,-0.3944 z"
             style="fill:#1b1918;fill-rule:evenodd"
             id="path632" />
          <path
             inkscape:connector-curvature="0"
             d="m 105.9161,757.839 c -1.3936,-6.0125 -5.8912,-10.4787 -8.1315,-16.1099 -2.7488,-6.9088 -1.7192,-15.1354 -1.1343,-22.3569 0.6015,-7.4349 3.6945,-14.0973 5.1193,-21.3464 0.11,-0.5607 -0.8577,-0.576 -0.9845,0.0702 -1.4293,7.2706 -4.4653,13.9007 -5.1193,21.3463 -0.6048,6.8811 -1.6018,14.3577 0.2959,21.0836 1.7414,6.1692 6.1868,10.5548 8.0838,16.6856 2.1793,7.0424 -0.1375,13.8091 -1.7095,20.6619 -0.1257,0.5458 1.5505,0.6443 1.6988,0 1.5637,-6.8165 3.5179,-12.9762 1.8813,-20.0344 z"
             style="fill:#1b1918;fill-rule:evenodd"
             id="path634" />
          <path
             inkscape:connector-curvature="0"
             d="m 109.9198,759.8741 c -0.2102,-7.133 -4.2401,-11.2821 -7.9193,-16.8181 -3.9876,-6 -3.5075,-13.8934 -2.6439,-20.7608 1.025,-8.1429 3.2063,-15.9205 5.07,-23.8918 0.1268,-0.5441 -0.8079,-0.7381 -0.958,-0.0944 -1.7906,7.6591 -4.0401,15.2146 -5.2344,23.0017 -0.9915,6.4641 -1.9887,14.1292 1.0478,20.109 1.1556,2.2782 2.0897,4.41 3.6839,6.3892 2.6435,3.2829 4.4332,6.0688 5.0974,10.3296 0.4962,3.1797 0.5182,5.2771 -0.122,8.3849 -0.7968,3.8673 -0.8846,7.7795 -2.1775,11.5136 -0.2307,0.666 1.4481,0.7888 1.6383,0.2392 2.0823,-6.0154 2.7069,-11.9984 2.5177,-18.4021 z"
             style="fill:#1b1918;fill-rule:evenodd"
             id="path636" />
          <path
             inkscape:connector-curvature="0"
             d="m 118.9319,754.3449 c -1.9832,-6.8896 -8.8644,-10.9091 -12.0277,-17.1638 -1.5005,-2.9663 -2.1841,-6.3921 -2.4881,-9.6522 -0.3114,-3.3315 -0.419,-6.6812 -0.3975,-10.0257 0.1882,-5.4102 1.8112,-12.5236 3.3327,-18.733 0.2043,-0.6063 -0.7363,-0.7012 -0.9343,-0.1564 -1.4354,5.4837 -3.5793,13.8488 -3.6437,17.2687 -0.2112,6.3034 0.2334,13.279 2.039,19.3018 1.9226,6.8732 8.3229,10.7879 11.5038,16.9169 1.9181,3.6962 2.0987,8.1185 2.0799,12.1923 -0.0208,4.4868 -0.2191,9.1594 -1.0016,13.5799 -0.1009,0.5684 1.5843,0.6461 1.6988,0 0.6922,-3.9092 1.1933,-8.2386 1.2001,-12.5278 v -0.0978 c -5e-4,-3.7728 -0.3855,-7.5119 -1.3614,-10.9029 z"
             style="fill:#1b1918;fill-rule:evenodd"
             id="path638" />
          <path
             inkscape:connector-curvature="0"
             d="m 90.0878,749.2253 c -0.1977,-0.2823 0.8696,-0.5867 1.046,-0.3343 1.4111,2.7851 3.711,4.3134 4.0937,7.4931 0.1103,0.2236 -1.0623,0.8095 -1.2224,0.4856 0.0127,-3.1531 -2.7879,-4.6108 -3.9173,-7.6444 z"
             style="fill:#1b1918;fill-rule:evenodd"
             id="path640" />
          <path
             inkscape:connector-curvature="0"
             d="m 87.319,734.8573 c 0.0157,-0.1672 0.1638,-0.2411 0.3457,-0.2443 l 0.0331,2e-4 c 0.3241,0.009 0.7339,0.2298 0.7043,0.5428 -0.522,3.6915 -0.4052,4.0044 -0.0264,7.353 -0.3779,0.3234 -1.054,0.0428 -1.0951,-0.1014 -0.2441,-1.5726 -0.3322,-2.525 -0.3257,-3.4007 0.0085,-1.1257 0.1732,-2.1241 0.3641,-4.1496 z"
             style="fill:#1b1918;fill-rule:evenodd"
             id="path642" />
          <path
             inkscape:connector-curvature="0"
             d="m 95.3377,765.5654 c 0.1549,-0.7505 1.3527,-0.3298 1.1992,0.3957 -0.1716,2.8144 -2.0369,8.1811 -2.8199,10.8903 0.0568,0.0626 -1.3868,0.2495 -1.1844,-0.4792 0.7752,-2.6819 2.6353,-8.0209 2.8051,-10.8068 z"
             style="fill:#1b1918;fill-rule:evenodd"
             id="path644" />
          <path
             inkscape:connector-curvature="0"
             d="m 94.3603,708.6236 c 0.031,-0.0832 0.1139,-0.1076 0.2034,-0.0932 l 0.0162,0.003 c 0.1574,0.0332 0.3271,0.1812 0.2688,0.3371 -0.658,1.7627 -0.5919,1.9036 -1.0412,3.7212 -0.095,0.1792 -0.5335,-0.0449 -0.5219,-0.148 0.1004,-0.8179 0.1905,-1.308 0.3161,-1.7508 0.1616,-0.5693 0.3819,-1.0604 0.7586,-2.0693 z"
             style="fill:#1b1918;fill-rule:evenodd"
             id="path646" />
          <path
             inkscape:connector-curvature="0"
             d="m 97.3258,700.665 c 0.2255,-0.2803 0.6988,-0.0957 0.4885,0.1726 -0.6581,1.2328 -0.592,1.3312 -1.0413,2.6023 -0.3289,0.4187 -0.5435,-0.009 -0.5219,-0.1034 0.1004,-0.572 0.2859,-0.9235 0.4115,-1.2331 0.1615,-0.3981 0.2865,-0.7329 0.6632,-1.4384 z"
             style="fill:#1b1918;fill-rule:evenodd"
             id="path648" />
          <path
             inkscape:connector-curvature="0"
             d="m 117.9825,770.2923 c 0.6123,-0.1321 0.5671,1.7455 -0.0258,1.8695 -1.5142,0.3739 -6.5284,0.1737 -8.792,0.4138 -0.387,-0.019 -0.5138,-1.8135 0.0932,-1.8868 2.2408,-0.2376 5.6314,-0.1667 8.7246,-0.3965 z"
             style="fill:#1b1918;fill-rule:evenodd"
             id="path650" />
          <path
             inkscape:connector-curvature="0"
             d="m 118.2842,762.9335 c 0.5756,-0.1261 0.5593,1.5368 0.002,1.6554 -1.4228,0.3537 -6.1546,0.2516 -8.2861,0.4981 -0.3652,-0.011 -0.5101,-1.5978 0.0614,-1.6718 2.1099,-0.2439 5.3087,-0.2319 8.2228,-0.4817 z"
             style="fill:#1b1918;fill-rule:evenodd"
             id="path652" />
          <path
             inkscape:connector-curvature="0"
             d="m 117.7825,756.6634 c 0.5433,-0.1202 0.5038,1.4928 -0.0223,1.6058 -1.3436,0.3379 -5.7931,0.2212 -7.8018,0.4523 -0.3433,-0.012 -0.4565,-1.5518 0.0822,-1.6215 1.9883,-0.2287 4.9971,-0.2052 7.7419,-0.4366 z"
             style="fill:#1b1918;fill-rule:evenodd"
             id="path654" />
          <path
             inkscape:connector-curvature="0"
             d="m 115.8678,752.2607 c 0.5669,0.0335 0.2713,-1.5223 -0.2771,-1.5515 -1.4087,-0.1227 -5.692,0.6781 -7.7544,0.7602 -0.3443,0.0639 -0.2143,1.5722 0.34,1.5575 2.0414,-0.0813 4.8866,-0.5726 7.6915,-0.7662 z"
             style="fill:#1b1918;fill-rule:evenodd"
             id="path656" />
          <path
             inkscape:connector-curvature="0"
             d="m 111.7448,745.2965 c 0.5217,-0.1612 0.8938,1.3735 0.3883,1.5262 -1.2869,0.4388 -5.209,0.581 -7.155,0.9689 -0.3368,0.0159 -0.8398,-1.4314 -0.3185,-1.5427 1.9262,-0.3839 4.4193,-0.5048 7.0852,-0.9524 z"
             style="fill:#1b1918;fill-rule:evenodd"
             id="path658" />
          <path
             inkscape:connector-curvature="0"
             d="m 107.8642,740.7048 c 0.475,-0.1306 0.8455,1.2737 0.3854,1.3971 -1.1733,0.3605 -4.9166,0.3987 -6.681,0.6878 -0.3035,0.002 -0.7304,-1.3563 -0.2575,-1.4406 1.7465,-0.2862 4.1389,-0.3259 6.5531,-0.6443 z"
             style="fill:#1b1918;fill-rule:evenodd"
             id="path660" />
          <path
             inkscape:connector-curvature="0"
             d="m 105.0567,735.9436 c 0.4381,-0.1102 0.7149,1.3024 0.2907,1.406 -1.0835,0.3095 -4.1234,0.1765 -5.7419,0.3901 -0.2764,-0.0101 -0.6066,-1.3799 -0.1725,-1.444 1.6021,-0.2115 3.4123,-0.1368 5.6237,-0.3521 z"
             style="fill:#1b1918;fill-rule:evenodd"
             id="path662" />
          <path
             inkscape:connector-curvature="0"
             d="m 104.0374,731.0156 c 0.4109,-0.1068 0.6916,1.1839 0.2936,1.2844 -1.0159,0.2979 -3.8802,0.2163 -5.4013,0.4335 -0.2603,-0.006 -0.5907,-1.2564 -0.1828,-1.3209 1.5056,-0.2149 3.2112,-0.1704 5.2905,-0.397 z"
             style="fill:#1b1918;fill-rule:evenodd"
             id="path664" />
          <path
             inkscape:connector-curvature="0"
             d="m 103.1462,726.1877 c 0.3753,-0.0906 0.6316,1.0048 0.2682,1.0901 -0.9277,0.2528 -3.5434,0.1835 -4.9324,0.3679 -0.2378,-0.005 -0.5394,-1.0663 -0.167,-1.1211 1.375,-0.1824 2.9325,-0.1446 4.8312,-0.3369 z"
             style="fill:#1b1918;fill-rule:evenodd"
             id="path666" />
          <path
             inkscape:connector-curvature="0"
             d="m 103.632,710.683 c 0.1612,0.0712 0.2268,-1.0809 0.0708,-1.1473 -0.2444,-0.0692 -1.4954,0.0247 -2.086,-0.0822 -0.0997,0.0194 -0.1856,1.139 -0.0271,1.1732 0.5846,0.1058 1.2457,0.193 2.0423,0.0563 z"
             style="fill:#1b1918;fill-rule:evenodd"
             id="path668" />
          <path
             inkscape:connector-curvature="0"
             d="m 104.4391,706.9487 c 0.1574,0.0647 0.2214,-0.9808 0.0692,-1.0411 -0.2387,-0.0628 -1.4605,0.0224 -2.0371,-0.0746 -0.0974,0.0176 -0.1814,1.0336 -0.0265,1.0646 0.5708,0.096 1.2165,0.1751 1.9944,0.0511 z"
             style="fill:#1b1918;fill-rule:evenodd"
             id="path670" />
          <path
             inkscape:connector-curvature="0"
             d="m 105.1475,703.8124 c 0.1514,0.055 0.213,-0.8351 0.0665,-0.8864 -0.2297,-0.0535 -1.4054,0.019 -1.9603,-0.0636 -0.0937,0.015 -0.1745,0.8801 -0.0255,0.9065 0.5493,0.0817 1.1706,0.1491 1.9193,0.0435 z"
             style="fill:#1b1918;fill-rule:evenodd"
             id="path672" />
          <path
             inkscape:connector-curvature="0"
             d="m 105.9182,700.8618 c 0.1653,0.0459 0.2327,-0.6957 0.0726,-0.7385 -0.2508,-0.0445 -1.5347,0.0159 -2.1407,-0.0529 -0.1023,0.0125 -0.1905,0.7332 -0.0278,0.7552 0.5999,0.0681 1.2783,0.1242 2.0959,0.0362 z"
             style="fill:#1b1918;fill-rule:evenodd"
             id="path674" />
        </g>
        <path
           inkscape:connector-curvature="0"
           d="m 71.6163,725.1207 c -0.1302,4.6246 -1.8979,8.2996 -3.851,11.6159 -0.9137,1.3404 -1.7889,2.7168 -2.697,4.0639 l 2.6432,-0.1726 c 2.1751,-0.2012 3.8475,-2.2572 4.8659,-3.5605 1.7011,-1.8885 3.3857,-6.2086 3.8206,-10.3894 z"
           style="fill:#ffcb00;fill-rule:evenodd;stroke:#1b1918;stroke-width:1.4173;stroke-linecap:round;stroke-linejoin:round;stroke-dasharray:none"
           id="path677" />
        <path
           inkscape:connector-curvature="0"
           d="m 108.0123,719.4618 c 2.0937,1.5729 2.388,5.3409 2.329,6.7183 0.0201,1.2308 -0.4087,2.4723 -0.6809,3.6752 l 2.5323,-0.4877 c 2.3311,-0.4664 2.5502,-4.8155 2.8912,-6.6506 -0.3229,-2.4266 -1.8367,-3.8821 -2.4534,-5.245 z"
           style="fill:#ffcb00;fill-rule:evenodd;stroke:#1b1918;stroke-width:1.4173;stroke-linecap:round;stroke-linejoin:round;stroke-dasharray:none"
           id="path679" />
        <path
           inkscape:connector-curvature="0"
           d="m 72.5646,732.2349 c -0.1302,4.6246 -1.898,8.2996 -3.851,11.6159 -0.9138,1.3403 -1.7889,2.7168 -2.697,4.0639 l 2.6432,-0.1727 c 2.1751,-0.2011 3.8474,-2.2571 4.8658,-3.5604 1.7012,-1.8885 3.3858,-6.2086 3.8207,-10.3894 z"
           style="fill:#1b1918;fill-rule:evenodd;stroke:#1b1918;stroke-width:1.4173;stroke-linecap:round;stroke-linejoin:round;stroke-dasharray:none"
           id="path681" />
        <path
           inkscape:connector-curvature="0"
           d="m 112.8136,724.7273 c 2.0937,1.573 2.388,5.3409 2.329,6.7183 0.0201,1.2309 -0.4087,2.4724 -0.681,3.6752 l 2.5324,-0.4876 c 2.3311,-0.4665 2.5502,-4.8155 2.8912,-6.6507 -0.3229,-2.4265 -1.8367,-3.8821 -2.4534,-5.245 z"
           style="fill:#1b1918;fill-rule:evenodd;stroke:#1b1918;stroke-width:1.4173;stroke-linecap:round;stroke-linejoin:round;stroke-dasharray:none"
           id="path683" />
        <path
           inkscape:connector-curvature="0"
           d="m 122.1385,718.0387 c 6.7568,5.0293 14.4645,7.8157 22.8887,8.9122 -10.0675,2.998 -18.5007,0.3366 -26.2687,-4.626 1.6521,-0.8883 2.9291,-2.1629 3.38,-4.2862 z"
           style="fill:#1b1918;fill-rule:evenodd;stroke:#1b1918;stroke-width:0.2835;stroke-linecap:round;stroke-linejoin:round;stroke-dasharray:none"
           id="path685" />
        <path
           inkscape:connector-curvature="0"
           d="m 67.4192,722.59 c 2.6286,2.0761 3.9292,5.3063 3.9025,9.6903 15.9177,7.5815 19.9431,-8.6297 32.3634,-5.4607 5.6077,1.4716 11.227,0.3801 17.6445,-6.2242 1.3559,-1.6211 1.5504,-4.4433 -1.1878,-6.4886 -19.6666,-14.0901 -48.9597,-8.4697 -52.7226,8.4832 z"
           style="fill:#ffcb00;fill-rule:evenodd;stroke:#1b1918;stroke-width:1.4173;stroke-linecap:round;stroke-linejoin:round;stroke-dasharray:none"
           id="path687" />
        <path
           inkscape:connector-curvature="0"
           d="m 58.2711,721.4746 c 1.3074,-1.093 2.2536,-1.4102 4.0126,-1.6019 0.3451,-7.6678 -10.9722,-5.2243 -4.0126,1.6019 z"
           style="fill:#ffcb00;fill-rule:evenodd;stroke:#1b1918;stroke-width:1.4173;stroke-linecap:round;stroke-linejoin:round;stroke-dasharray:none"
           id="path689" />
        <path
           inkscape:connector-curvature="0"
           d="m 71.3218,732.2802 c -7.0169,5.9115 -12.3986,11.4133 -14.2849,16.7499 l -3.6004,-0.2282 c 1.7723,-8.1395 -2.8882,-16.4097 3.2781,-26.1293 1.604,-1.9606 3.7137,-3.0829 5.9119,-2.8712 -4.4135,-5.8462 9.626,-11.3855 4.7926,2.7887 3.081,2.7376 4.2739,5.9977 3.9027,9.6901 z"
           style="fill:#1b1918;fill-rule:evenodd;stroke:#1b1918;stroke-width:1.4173;stroke-linecap:round;stroke-linejoin:round;stroke-dasharray:none"
           id="path691" />
        <path
           inkscape:connector-curvature="0"
           d="m 53.943,742.914 c 2.6847,-1.8254 8.0547,-5.6769 7.0794,-11.2335 -0.2706,-1.5416 -0.2958,-2.741 1.7931,-3.5359 2.1509,-0.8188 3.1832,-3.6302 4.1212,-6.0766 -2.9142,-2.8347 -7.2879,-3.3384 -10.2221,0.6046 -5.1538,8.3771 -2.7386,14.4923 -2.7716,20.2414 z"
           style="fill:#ffcb00;fill-rule:evenodd;stroke:#1b1918;stroke-width:1.4173;stroke-linecap:round;stroke-linejoin:round;stroke-dasharray:none"
           id="path693" />
        <path
           inkscape:connector-curvature="0"
           d="m 93.6702,708.3547 c 3.6111,5.1664 4.3151,10.1784 2.7257,14.843"
           style="fill:#1b1918;fill-rule:evenodd;stroke:#1b1918;stroke-width:1.4173;stroke-linecap:round;stroke-linejoin:round;stroke-dasharray:none"
           id="path695" />
        <path
           inkscape:connector-curvature="0"
           d="m 96.9058,710.1311 c 2.389,3.5639 2.7295,8.139 1.9393,10.8477"
           style="fill:#1b1918;fill-rule:evenodd;stroke:#1b1918;stroke-width:1.4173;stroke-linecap:round;stroke-linejoin:round;stroke-dasharray:none"
           id="path697" />
        <path
           inkscape:connector-curvature="0"
           d="m 62.2315,728.7327 c -0.7684,0.0667 -1.3374,0.7439 -1.2707,1.5125 0.0667,0.7684 0.7439,1.3374 1.5123,1.2707 0.7684,-0.0667 1.3376,-0.7439 1.2709,-1.5123 -0.0669,-0.7686 -0.7439,-1.3376 -1.5125,-1.2709 z"
           style="fill:#ffcb00;fill-rule:evenodd"
           id="path699" />
      </g>
    </g>
  </g>
</svg>
